<svg width="279" height="26" xmlns="http://www.w3.org/2000/svg"><g fill="#FFF" fill-rule="evenodd"><path d="M0 .486h1.47v25.248H0zM47.721 7.105v5.448h6.676V7.105h1.69v12.678h-1.69v-5.805H47.72v5.805h-1.684V7.105zM60.733 7.105l3.996 10.654 4.013-10.654h2.306v12.678h-1.594V9.236h-.04l-3.956 10.547h-1.436L60.06 9.236h-.034v10.547h-1.6V7.105zM86.1 8.897c-.645-.453-1.413-.673-2.3-.673-.758 0-1.408.141-1.945.424a3.781 3.781 0 0 0-1.328 1.147 5.015 5.015 0 0 0-.775 1.645 7.422 7.422 0 0 0-.249 1.916c0 .724.085 1.407.25 2.052.163.644.423 1.21.774 1.69.35.48.796.859 1.34 1.147.542.283 1.192.424 1.955.424.554 0 1.051-.09 1.48-.277.43-.18.803-.44 1.12-.763.31-.328.56-.712.735-1.164.175-.447.282-.933.316-1.458h1.684c-.164 1.6-.717 2.843-1.65 3.73-.933.887-2.216 1.334-3.838 1.334-.983 0-1.842-.17-2.572-.509a5.122 5.122 0 0 1-1.83-1.39 5.973 5.973 0 0 1-1.092-2.097 8.911 8.911 0 0 1-.362-2.595c0-.927.13-1.791.39-2.6.26-.813.645-1.52 1.148-2.125a5.342 5.342 0 0 1 1.882-1.43c.752-.35 1.61-.525 2.583-.525.661 0 1.289.09 1.882.265a5.11 5.11 0 0 1 1.583.78c.463.345.848.775 1.153 1.289a4.77 4.77 0 0 1 .605 1.786h-1.69c-.192-.899-.605-1.571-1.25-2.023"/><path d="M91.933 16.685c.147.43.35.792.61 1.085.26.289.565.515.916.667.35.153.718.232 1.108.232.39 0 .763-.079 1.107-.232.35-.152.656-.378.916-.667.26-.288.463-.65.61-1.085.147-.43.22-.927.22-1.48 0-.555-.073-1.052-.22-1.482a3.185 3.185 0 0 0-.61-1.09 2.601 2.601 0 0 0-.916-.673 2.74 2.74 0 0 0-1.107-.232c-.39 0-.764.08-1.108.232-.35.153-.656.379-.916.673-.26.294-.463.66-.61 1.09-.147.43-.22.927-.22 1.481s.073 1.046.22 1.481m-1.538-3.374a4.071 4.071 0 0 1 2.255-2.55c.554-.248 1.193-.372 1.917-.372.734 0 1.373.124 1.927.373a4.008 4.008 0 0 1 1.39 1.023c.379.435.662.944.854 1.526a6.21 6.21 0 0 1 .282 1.893 6.11 6.11 0 0 1-.282 1.883 4.363 4.363 0 0 1-.854 1.52 3.91 3.91 0 0 1-1.39 1.012c-.548.243-1.193.361-1.927.361-.724 0-1.363-.124-1.917-.361a3.972 3.972 0 0 1-1.401-1.012 4.313 4.313 0 0 1-.854-1.52 5.92 5.92 0 0 1-.282-1.883c0-.678.096-1.305.282-1.893" fill-rule="nonzero"/><path d="M106.566 19.783v-1.459h-.034c-.322.571-.729.984-1.226 1.255-.498.266-1.086.401-1.758.401-.605 0-1.108-.079-1.51-.243a2.371 2.371 0 0 1-.977-.684 2.586 2.586 0 0 1-.526-1.056 5.596 5.596 0 0 1-.152-1.357v-6.037h1.509v6.218c0 .565.164 1.017.497 1.35.334.334.786.498 1.368.498.463 0 .86-.073 1.198-.215.34-.141.622-.344.842-.604.226-.26.396-.566.51-.916.112-.35.169-.73.169-1.147v-5.184h1.509v9.18h-1.419zM111.24 10.603v1.934h.034c.368-.747.814-1.295 1.351-1.65.532-.357 1.21-.52 2.024-.498v1.6c-.605 0-1.12.084-1.543.248a2.407 2.407 0 0 0-1.029.73c-.26.316-.452.706-.57 1.163a6.27 6.27 0 0 0-.176 1.572v4.08h-1.51v-9.179h1.42zM119.922 10.603v1.334h-1.831v5.698c0 .175.017.322.045.424a.432.432 0 0 0 .17.248.75.75 0 0 0 .344.113c.147.017.34.029.577.029h.695v1.334h-1.153c-.39 0-.723-.029-1.006-.08-.277-.056-.503-.152-.673-.293-.17-.142-.3-.345-.384-.605-.085-.26-.124-.605-.124-1.029v-5.844h-1.56v-1.334h1.56V7.845h1.509v2.753h1.831v.005zM122.33 17.73c.141.233.328.413.56.55.231.135.491.23.78.293.288.062.587.09.898.09.238 0 .486-.016.746-.056.26-.034.498-.102.718-.198.22-.096.401-.232.543-.418.141-.187.215-.418.215-.701 0-.39-.147-.684-.447-.887-.294-.204-.667-.362-1.108-.486a18.971 18.971 0 0 0-1.447-.34c-.52-.101-1-.243-1.447-.424a2.904 2.904 0 0 1-1.108-.774c-.293-.333-.446-.791-.446-1.385 0-.463.102-.859.31-1.192.21-.334.476-.6.798-.809.328-.203.69-.361 1.102-.457a5.006 5.006 0 0 1 1.215-.153c.52 0 1 .045 1.436.136.435.09.825.243 1.164.463.34.22.605.515.808.888.204.373.317.836.357 1.396h-1.51a1.507 1.507 0 0 0-.231-.735 1.463 1.463 0 0 0-.498-.47 2.376 2.376 0 0 0-.667-.26 3.567 3.567 0 0 0-.734-.078 4.7 4.7 0 0 0-.684.05 2.23 2.23 0 0 0-.633.187c-.187.09-.345.21-.464.356-.119.147-.175.34-.175.577 0 .26.09.48.277.65.18.17.418.316.7.424.283.113.605.209.962.282.356.08.712.158 1.062.243.379.085.746.181 1.108.3a3.8 3.8 0 0 1 .96.469c.278.198.504.44.673.735.17.294.26.661.26 1.102 0 .56-.118 1.017-.344 1.385a2.715 2.715 0 0 1-.905.887 3.663 3.663 0 0 1-1.26.47c-.47.09-.933.135-1.396.135-.509 0-.995-.051-1.458-.158a3.584 3.584 0 0 1-1.227-.526 2.698 2.698 0 0 1-.853-.961c-.215-.396-.334-.876-.357-1.447h1.51c.017.334.096.616.237.848"/><path d="M138.947 11.598c.204-.141.385-.3.549-.48.164-.175.3-.373.407-.594.107-.22.158-.463.158-.734 0-.368-.13-.684-.39-.95-.26-.266-.616-.401-1.068-.401-.356 0-.69.107-.995.328-.311.22-.464.56-.464 1.023 0 .186.04.378.113.565.08.186.176.373.294.56.119.186.249.367.39.542.142.175.283.356.424.531.192-.118.385-.248.582-.39m-1.91 2.572a3.464 3.464 0 0 0-.7.605 2.651 2.651 0 0 0-.481.757c-.119.277-.176.605-.176.984 0 .322.068.61.204.881.136.266.316.492.543.673.226.187.48.328.774.435.288.108.588.158.899.158.576 0 1.096-.135 1.554-.406a3.554 3.554 0 0 0 1.147-1.103l-2.91-3.498c-.306.17-.583.339-.854.514m3.04 5.364a4.923 4.923 0 0 1-2.034.44c-.853 0-1.537-.13-2.057-.39s-.922-.57-1.21-.937a2.961 2.961 0 0 1-.56-1.137 4.491 4.491 0 0 1-.135-.977c0-.498.079-.933.237-1.312.159-.378.373-.718.639-1.023.266-.3.582-.576.944-.814.362-.243.74-.469 1.147-.684-.175-.248-.35-.486-.514-.712a8.399 8.399 0 0 1-.452-.684 3.493 3.493 0 0 1-.322-.729 2.902 2.902 0 0 1-.113-.859c0-.345.062-.673.186-.983.124-.317.305-.594.548-.831.243-.243.543-.435.899-.577a3.299 3.299 0 0 1 1.227-.215c.39 0 .774.051 1.141.159.373.107.701.271.984.486.282.22.514.492.684.814.17.328.254.7.254 1.124 0 .38-.068.73-.198 1.057a3.28 3.28 0 0 1-.531.9c-.226.27-.48.52-.763.734-.283.22-.582.418-.888.593l2.29 2.787a6.86 6.86 0 0 0 .407-1.973h1.435c-.034.379-.073.701-.119.967-.04.265-.096.514-.158.735a7.207 7.207 0 0 1-.237.667c-.096.22-.21.469-.34.751l2.47 2.86h-1.972l-1.35-1.577a3.383 3.383 0 0 1-1.538 1.34" fill-rule="nonzero"/><path d="M149.297 8.523V7.105h10.14v1.418h-4.228v11.26h-1.685V8.523z"/><path d="M160.013 10.603v1.934h.034c.367-.747.814-1.295 1.35-1.65.532-.357 1.21-.52 2.024-.498v1.6c-.604 0-1.119.084-1.543.248a2.407 2.407 0 0 0-1.028.73c-.26.316-.453.706-.571 1.163a6.27 6.27 0 0 0-.176 1.572v4.08h-1.509v-9.179h1.419z"/><path d="M165.795 19.783h-1.509v-9.18h1.51v9.18zm-1.503-12.678h1.509v1.848h-1.51V7.105zM174.652 13.86a3.349 3.349 0 0 0-.514-1.092 2.469 2.469 0 0 0-.888-.763c-.361-.186-.785-.282-1.271-.282-.509 0-.944.101-1.295.3a2.604 2.604 0 0 0-.87.79c-.226.328-.39.696-.486 1.108a5.269 5.269 0 0 0-.153 1.26c0 .453.051.888.158 1.306.108.419.277.792.51 1.108a2.6 2.6 0 0 0 .898.775c.367.197.808.293 1.334.293.52 0 .955-.101 1.305-.3.35-.203.633-.468.843-.802.214-.328.367-.712.463-1.136.096-.424.141-.865.141-1.317a4.9 4.9 0 0 0-.175-1.249zm-5.426-6.755v4.742h.034a2.263 2.263 0 0 1 1.17-1.108 4.355 4.355 0 0 1 1.758-.345c.712 0 1.328.13 1.854.39.525.26.966.61 1.311 1.057.35.447.61.956.791 1.538a6.38 6.38 0 0 1 .266 1.848c0 .65-.085 1.266-.254 1.848a4.405 4.405 0 0 1-.78 1.52c-.35.43-.786.77-1.312 1.024-.525.248-1.141.373-1.837.373a4.16 4.16 0 0 1-.751-.074 4 4 0 0 1-.826-.231 3.39 3.39 0 0 1-.774-.436 2.371 2.371 0 0 1-.61-.684h-.034v1.216h-1.51V7.105h1.504z" fill-rule="nonzero"/><path d="M183.961 19.783v-1.459h-.034c-.322.571-.729.984-1.226 1.255-.498.266-1.085.401-1.758.401-.605 0-1.108-.079-1.51-.243-.4-.164-.728-.384-.977-.684a2.586 2.586 0 0 1-.526-1.056 5.596 5.596 0 0 1-.152-1.357v-6.037h1.509v6.218c0 .565.164 1.017.497 1.35.328.334.786.498 1.368.498.464 0 .86-.073 1.198-.215.34-.141.622-.344.843-.604.226-.26.395-.566.508-.916.113-.35.17-.73.17-1.147v-5.184h1.509v9.18h-1.419zM188.664 10.603v1.459h.034c.627-1.114 1.622-1.668 2.984-1.668.605 0 1.108.085 1.51.249.4.164.728.396.977.69.249.294.424.65.52 1.057.102.407.153.859.153 1.356v6.037h-1.51v-6.218c0-.57-.163-1.017-.497-1.35-.333-.328-.785-.498-1.368-.498-.463 0-.859.073-1.198.215-.339.141-.622.345-.842.605-.226.26-.396.565-.503.915-.113.35-.17.73-.17 1.148v5.183h-1.509v-9.18h1.419z"/><path d="M202.376 15.04c-.186.142-.435.243-.746.311a9.583 9.583 0 0 1-.967.159c-.339.04-.678.09-1.023.14-.344.052-.65.137-.92.255a1.698 1.698 0 0 0-.668.503c-.175.22-.26.515-.26.893 0 .249.051.458.153.628.102.17.232.31.39.412.158.108.345.181.56.232.214.045.435.068.672.068.497 0 .921-.068 1.277-.204a2.65 2.65 0 0 0 .87-.514c.227-.203.39-.43.498-.673.108-.243.158-.469.158-.678V15.04h.006zm2.447 4.709c-.26.152-.621.231-1.085.231-.39 0-.7-.107-.932-.327-.232-.22-.345-.577-.345-1.074a3.624 3.624 0 0 1-1.447 1.074 4.757 4.757 0 0 1-1.786.327 4.73 4.73 0 0 1-1.181-.14 2.72 2.72 0 0 1-.967-.447 2.188 2.188 0 0 1-.65-.792c-.158-.328-.237-.718-.237-1.181 0-.52.09-.95.265-1.277.181-.334.413-.6.701-.809.288-.203.622-.361.995-.469.373-.107.752-.198 1.147-.265.413-.08.809-.147 1.182-.187.373-.04.7-.102.983-.175.283-.08.509-.187.673-.34.164-.146.248-.361.248-.65 0-.333-.062-.598-.186-.796a1.258 1.258 0 0 0-.48-.464 2.034 2.034 0 0 0-.656-.215 5.17 5.17 0 0 0-.718-.05c-.639 0-1.17.118-1.6.361-.424.243-.655.701-.695 1.374h-1.509c.023-.571.141-1.046.356-1.441a2.71 2.71 0 0 1 .854-.95 3.622 3.622 0 0 1 1.215-.526 6.352 6.352 0 0 1 1.464-.158c.412 0 .825.028 1.232.09.407.057.78.181 1.108.362.333.181.599.441.797.769.198.328.3.763.3 1.294v4.714c0 .356.022.616.061.78.046.164.181.249.419.249.13 0 .282-.023.463-.074v1.182h.011z" fill-rule="nonzero"/><path d="M205.965 7.105h1.509v12.678h-1.509z"/><g><path d="M210.623 17.73c.14.233.327.413.56.55.23.135.49.23.78.293.287.062.587.09.898.09.237 0 .486-.016.746-.056a2.58 2.58 0 0 0 .718-.198c.22-.096.401-.232.542-.418.142-.187.215-.418.215-.701 0-.39-.147-.684-.446-.887-.294-.204-.667-.362-1.108-.486a18.971 18.971 0 0 0-1.447-.34c-.52-.101-1-.243-1.447-.424-.441-.18-.814-.44-1.108-.774-.294-.333-.446-.791-.446-1.385 0-.463.101-.859.31-1.192.21-.334.475-.6.797-.809a3.688 3.688 0 0 1 1.103-.457 5.006 5.006 0 0 1 1.215-.153c.52 0 1 .045 1.435.136.436.09.826.243 1.165.463.339.22.605.515.808.888.198.373.322.836.356 1.396h-1.509a1.507 1.507 0 0 0-.232-.735 1.463 1.463 0 0 0-.497-.47 2.376 2.376 0 0 0-.667-.26 3.567 3.567 0 0 0-.735-.078 4.7 4.7 0 0 0-.684.05 2.23 2.23 0 0 0-.633.187c-.186.09-.345.21-.463.356a.89.89 0 0 0-.181.577c0 .26.09.48.277.65.18.17.418.316.7.424.283.113.605.209.962.282.356.08.712.158 1.062.243.379.085.752.181 1.108.3a3.8 3.8 0 0 1 .96.469c.278.198.504.44.673.735.17.294.26.661.26 1.102 0 .56-.113 1.017-.344 1.385a2.715 2.715 0 0 1-.905.887 3.663 3.663 0 0 1-1.26.47c-.47.09-.933.135-1.396.135-.509 0-.995-.051-1.458-.158a3.584 3.584 0 0 1-1.227-.526 2.698 2.698 0 0 1-.853-.961c-.215-.396-.334-.876-.357-1.447h1.51c.022.334.101.616.243.848M229.523 8.834c-.565-.407-1.283-.61-2.159-.61-.356 0-.706.034-1.045.107-.345.074-.65.192-.916.356-.266.164-.48.39-.639.667-.158.277-.237.622-.237 1.04 0 .39.119.707.345.95.231.243.537.44.921.593.384.153.82.283 1.306.385.486.101.978.209 1.48.328.504.118.995.26 1.481.418.487.158.922.373 1.306.65.384.271.695.616.921 1.029.232.412.345.932.345 1.56 0 .672-.152 1.249-.452 1.73-.3.48-.69.87-1.164 1.17-.475.299-1 .52-1.589.655a7.76 7.76 0 0 1-3.77-.062 4.978 4.978 0 0 1-1.667-.809 3.834 3.834 0 0 1-1.136-1.384c-.277-.56-.418-1.227-.418-1.996h1.6c0 .532.101.99.31 1.38.204.384.48.7.82.949.339.249.729.43 1.181.548.452.119.91.175 1.385.175.378 0 .763-.033 1.147-.107.384-.073.73-.192 1.04-.362.311-.17.554-.407.746-.7.192-.294.283-.673.283-1.137 0-.435-.113-.79-.345-1.062a2.536 2.536 0 0 0-.921-.667c-.385-.17-.82-.311-1.306-.418-.486-.108-.978-.215-1.48-.328a21.069 21.069 0 0 1-1.482-.39 5.302 5.302 0 0 1-1.305-.588 2.727 2.727 0 0 1-.922-.944c-.231-.384-.344-.865-.344-1.447 0-.639.13-1.193.39-1.662.26-.469.604-.853 1.04-1.153.43-.3.92-.525 1.475-.672a6.52 6.52 0 0 1 1.695-.22 6.8 6.8 0 0 1 1.81.231 4.05 4.05 0 0 1 1.463.73c.418.333.752.75.995 1.254.243.503.379 1.102.401 1.803h-1.6c-.101-.921-.429-1.577-.989-1.99"/><path d="M240.195 13.3a2.632 2.632 0 0 0-.548-.826 2.614 2.614 0 0 0-.814-.548 2.606 2.606 0 0 0-1.04-.203c-.39 0-.746.067-1.057.203-.311.136-.583.322-.809.56a2.62 2.62 0 0 0-.53.825c-.13.316-.21.65-.233 1.006h5.274a3.268 3.268 0 0 0-.243-1.017m.362 5.895c-.684.52-1.55.78-2.595.78-.735 0-1.368-.119-1.91-.356a3.81 3.81 0 0 1-1.357-.995 4.143 4.143 0 0 1-.825-1.526 7.207 7.207 0 0 1-.31-1.933c0-.695.107-1.334.321-1.916a4.484 4.484 0 0 1 .899-1.51 4.12 4.12 0 0 1 1.368-.994 4.153 4.153 0 0 1 1.73-.356c.819 0 1.492.17 2.034.508.543.34.972.77 1.295 1.29.327.52.548 1.09.672 1.706.124.616.175 1.204.153 1.758h-6.873c-.012.401.034.786.141 1.147.107.362.277.679.514.955.238.277.537.504.905.667.367.164.797.25 1.294.25.639 0 1.164-.148 1.571-.447.407-.294.679-.746.809-1.351h1.492c-.198 1.028-.639 1.803-1.328 2.323" fill-rule="nonzero"/><path d="M244.7 10.603v1.934h.033c.368-.747.82-1.295 1.351-1.65.532-.357 1.21-.52 2.024-.498v1.6c-.605 0-1.12.084-1.543.248a2.407 2.407 0 0 0-1.029.73c-.26.316-.452.706-.57 1.163-.12.458-.182.978-.182 1.572v4.08h-1.509v-9.179h1.425z"/></g><path d="M251.929 19.783l-3.409-9.18h1.685l2.577 7.654h.034l2.504-7.654h1.577l-3.352 9.18z"/><path d="M259.4 19.783h-1.508v-9.18h1.509v9.18zm-1.508-12.678h1.509v1.848h-1.51V7.105z" fill-rule="nonzero"/><g><path d="M266.856 12.203c-.379-.322-.887-.48-1.526-.48-.543 0-1 .101-1.368.3-.367.203-.661.468-.876.796a3.36 3.36 0 0 0-.469 1.148 6.12 6.12 0 0 0-.141 1.34c0 .423.05.841.152 1.243a3.3 3.3 0 0 0 .47 1.073 2.4 2.4 0 0 0 .836.758c.345.186.752.282 1.226.282.747 0 1.329-.197 1.747-.587.418-.39.678-.944.774-1.65h1.543c-.164 1.135-.587 2.011-1.266 2.627-.684.617-1.605.922-2.78.922-.701 0-1.318-.113-1.855-.34a3.647 3.647 0 0 1-1.35-.955 4.097 4.097 0 0 1-.814-1.48 6.268 6.268 0 0 1-.277-1.888c0-.69.09-1.329.265-1.928.176-.599.447-1.119.809-1.56.361-.44.814-.791 1.356-1.045.543-.255 1.176-.385 1.9-.385.52 0 1.011.063 1.463.187.458.124.86.316 1.21.576.35.26.633.588.859.984.226.396.367.865.424 1.413h-1.56c-.125-.582-.373-1.034-.752-1.351"/><path d="M276.663 13.3a2.553 2.553 0 0 0-1.368-1.374 2.606 2.606 0 0 0-1.04-.203c-.39 0-.746.067-1.057.203-.311.136-.582.322-.808.56a2.62 2.62 0 0 0-.532.825c-.13.316-.209.65-.231 1.006h5.273a3.11 3.11 0 0 0-.237-1.017m.361 5.895c-.684.52-1.548.78-2.588.78-.735 0-1.374-.119-1.91-.356a3.81 3.81 0 0 1-1.357-.995 4.143 4.143 0 0 1-.826-1.526 7.207 7.207 0 0 1-.31-1.933c0-.695.107-1.334.322-1.916a4.484 4.484 0 0 1 .898-1.51 4.12 4.12 0 0 1 1.368-.994 4.153 4.153 0 0 1 1.73-.356c.82 0 1.492.17 2.035.508.537.34.972.77 1.294 1.29.328.52.548 1.09.673 1.706.124.616.175 1.204.152 1.758h-6.873c-.011.401.034.786.141 1.147a2.533 2.533 0 0 0 1.419 1.622c.368.164.797.25 1.295.25.638 0 1.164-.148 1.57-.447.408-.294.68-.746.81-1.351h1.491c-.203 1.028-.644 1.803-1.334 2.323" fill-rule="nonzero"/></g><g><path d="M20.783 4.63c-.147.276-.271.44-.249.65.017.214.243.367.35.581.097-.248.26-.44.238-.633-.022-.198-.294-.458-.339-.599M24.502 4.63c.147.276.271.44.249.65-.017.214-.243.367-.35.581-.097-.248-.26-.44-.238-.633.017-.198.288-.458.34-.599M18.64 4.465a.252.252 0 0 0 0-.503.249.249 0 0 0-.248.255c0 .135.108.248.249.248M18.81 4.827a.253.253 0 0 0-.254-.254.252.252 0 1 0 .254.254M18.93 5.437a.252.252 0 0 0-.503 0 .25.25 0 0 0 .503 0M20.031 3.267a.25.25 0 0 0 .249-.249.256.256 0 0 0-.249-.254.249.249 0 0 0-.248.254c0 .136.107.249.248.249M19.41 3.46a.252.252 0 0 0 0-.503.253.253 0 0 0-.255.253c0 .142.113.25.255.25M18.918 3.894a.252.252 0 0 0 0-.503.252.252 0 0 0-.249.255.244.244 0 0 0 .249.248M20.687 3.33a.252.252 0 0 0 0-.503.257.257 0 0 0-.254.253.26.26 0 0 0 .254.25M21.309 3.51a.249.249 0 0 0 .248-.254.252.252 0 0 0-.503 0 .26.26 0 0 0 .255.254M21.897 3.787a.249.249 0 0 0 .248-.254.256.256 0 0 0-.248-.255.252.252 0 0 0-.25.255c0 .14.114.254.25.254M26.384 4.217c0 .14.113.248.249.248a.252.252 0 0 0 .254-.248.253.253 0 0 0-.254-.255.252.252 0 0 0-.249.255M26.718 4.573a.252.252 0 0 0 0 .503.253.253 0 0 0 .254-.255.252.252 0 0 0-.254-.248M26.593 5.183a.252.252 0 0 0 0 .503.253.253 0 0 0 .255-.254.252.252 0 0 0-.255-.249M25.243 3.267a.252.252 0 0 0 .254-.249.257.257 0 0 0-.254-.254.257.257 0 0 0-.255.254c0 .136.119.249.255.249M25.87 3.46a.252.252 0 0 0 0-.503.252.252 0 0 0-.249.253.24.24 0 0 0 .249.25M26.362 3.894a.252.252 0 0 0 0-.503.249.249 0 0 0-.249.255.244.244 0 0 0 .249.248M24.587 3.33a.252.252 0 0 0 0-.503.253.253 0 0 0-.254.253c0 .136.113.25.254.25M23.965 3.51a.249.249 0 0 0 .249-.254.25.25 0 0 0-.249-.249.25.25 0 0 0-.248.249.245.245 0 0 0 .248.254M23.129 3.533c0 .14.113.254.248.254a.249.249 0 0 0 .25-.254.252.252 0 0 0-.25-.255.256.256 0 0 0-.248.255M22.207 4.895h.283V3.82a1.17 1.17 0 0 1-.283-.085v1.159zM23.067 3.73a.914.914 0 0 1-.283.085v1.08h.283V3.73zM22.479 2.543v-.638a.783.783 0 0 0-.616.638h.616zM22.8 2.543h.611a.798.798 0 0 0-.61-.638v.638zM21.868 2.849c.08.35.396.616.769.616a.784.784 0 0 0 .769-.616h-1.538zM23.072 1.803a.886.886 0 0 1-.345-.56c.204.04.436.187.571.362V.74a.979.979 0 0 1-.57.362c.022-.209.152-.401.327-.622h-.836c.175.22.305.413.328.622-.204-.034-.436-.186-.571-.362v.865c.135-.175.367-.328.57-.362-.022.215-.163.419-.344.56h.87z"/><path d="M23.993 19.07a15.767 15.767 0 0 1-2.61-.938v-.011a.69.69 0 0 0-.182-.531.66.66 0 0 0-.497-.243.738.738 0 0 0-.243.045 4.257 4.257 0 0 1-1.136-1.724 4.402 4.402 0 0 1-.226-.893c-.046.254-.334.593-.826.599.006-.051 0-.181-.045-.192-.13.141-.328.3-.774.141.068.35.164.695.294 1.029a6.05 6.05 0 0 0 1.136 1.905c.158.18.328.35.509.508-.006.034-.006.068-.006.102 0 .186.18.48.435.605.21.101.441.073.645-.074.384.204.876.396 1.401.543.594.164 1.165.26 1.611.26.384 0 .893-.181 1.396-.498a3.86 3.86 0 0 0 .582-.452c-.39.051-.977-.062-1.464-.18M21.1 17.877l-.085-.062c-.153-.113-.283-.113-.418.005a1.456 1.456 0 0 0-.181.192l-.085.097.056.045c.164.13.187.271.142.356-.017.034-.046.05-.085.062-.08.023-.192-.006-.311-.08l-.062-.033-.04.062-.028.045c-.011.017-.028.04-.04.068a.63.63 0 0 0-.101.288c0 .023 0 .04.005.063.023.09.096.13.159.164l.04.022c.073.045.174.108.248.147a.433.433 0 0 1-.43.017c-.22-.107-.356-.35-.356-.475 0-.186.085-.424.238-.667l.022-.034-.022-.04c-.046-.078-.08-.146-.113-.214.084.011.164.028.243.045l.04.006.027-.028c.097-.102.43-.441.735-.441.142 0 .283.073.39.198.08.09.13.197.142.3-.034-.035-.085-.069-.13-.108m.508 1.509a.34.34 0 0 1-.339-.34.34.34 0 0 1 .34-.338.34.34 0 0 1 .338.339.34.34 0 0 1-.339.339m1.487.458a.314.314 0 0 1-.311-.311.31.31 0 1 1 .622 0 .317.317 0 0 1-.311.31M23.502 21.405c-.057 0-.108.011-.159.022v-.95a6.49 6.49 0 0 1-1.384-.208v1.158a.533.533 0 0 0-.707.51c0 .242.141.468.266.61.062-.147.119-.266.203-.266.164 0 .09.82.571.842a.379.379 0 0 0 .356.509c.21 0 .373-.17.373-.379a.332.332 0 0 0-.022-.13c.48-.023.401-.842.565-.842.079 0 .136.113.203.266.125-.142.266-.368.266-.61a.526.526 0 0 0-.531-.532m-.854 2.068a.209.209 0 1 1 0-.417.209.209 0 0 1 0 .417m1.125-1.198c-.056-.107-.141-.164-.215-.164-.322 0-.198.854-.582.854-.17 0-.26-.108-.26-.226 0-.119.085-.153.085-.249s-.074-.13-.158-.13c-.085 0-.159.034-.159.13s.085.136.085.249c0 .118-.09.226-.26.226-.384 0-.26-.854-.582-.854-.074 0-.158.062-.215.164a.793.793 0 0 1-.102-.333.37.37 0 0 1 .373-.373c.43 0 .334.588.537.588.09 0 .159-.057.159-.142 0-.17-.3-.328-.3-.565 0-.237.22-.44.458-.633.237.192.458.396.458.633s-.3.401-.3.565c0 .09.068.142.158.142.21 0 .108-.588.537-.588a.37.37 0 0 1 .373.373c.012.09-.028.215-.09.333" fill-rule="nonzero"/><path d="M34.62 22.54a.1.1 0 0 0-.125-.061c-1.108.322-2.481-.594-3.815-1.481-1.12-.746-2.176-1.453-3.08-1.453a1.91 1.91 0 0 0-.893.21 1.61 1.61 0 0 0-.707.819c-.153.373-.31.622-.44.825-.153.243-.267.418-.267.639 0 .18.08.339.232.492.13.13.311.254.582.395l.17.085c.22.107.356.18.384.305a7.154 7.154 0 0 1-1.65.464c-.73.13-1.526.192-2.368.192-.843 0-1.64-.062-2.369-.192-.644-.113-1.215-.272-1.65-.47.017-.186.153-.26.396-.372.056-.029.113-.051.175-.085.22-.119.43-.232.57-.356a.584.584 0 0 0 .227-.464c0-.22-.113-.395-.266-.639a5.025 5.025 0 0 1-.44-.825c-.153-.367-.39-.644-.707-.814a1.806 1.806 0 0 0-.888-.209c-.904 0-1.961.707-3.086 1.453-1.328.887-2.707 1.803-3.815 1.48a.1.1 0 0 0-.124.063c-.017.05.005.107.056.124.34.147.633.385.921.605.402.31.775.605 1.193.605.396 0 .814-.125 1.328-.396.447-.232.91-.548 1.357-.853.876-.6 1.78-1.216 2.64-1.283-.091.096-.181.17-.26.243-.255.226-.47.424-.47.82 0 .31.108.536.255.847.045.09.09.192.147.305.096.21.135.385.192.616.022.102.05.215.09.35.057.204.158.589.786.905.729.373 1.99.56 3.742.56s3.007-.187 3.741-.56c.628-.316.73-.7.786-.904.04-.136.062-.249.09-.35.057-.238.097-.408.193-.617a4.28 4.28 0 0 1 .197-.395c.13-.25.238-.441.238-.724 0-.401-.232-.605-.498-.848a3.626 3.626 0 0 1-.265-.254c.859.068 1.763.684 2.64 1.283.446.305.91.622 1.356.853.514.272.938.396 1.334.396.412 0 .791-.294 1.192-.605.289-.22.583-.452.922-.604.04-.012.068-.068.05-.12"/><path d="M27.956 13.673a1.408 1.408 0 0 1-.424-.498c-.13-.271-.679-1.356-.769-1.498a.677.677 0 0 1-.107-.322c0-.113.056-.203.118-.288.046-.057.164-.17.21-.243.033-.051.067-.096.096-.13a5.261 5.261 0 0 0-.667-.904 5.364 5.364 0 0 0-1.074-.927c.209-.136.424-.334.424-.667a.6.6 0 0 0-.22-.47c.22-.712.62-1.565.96-1.938l-.712-.3c.186.283.198.61.158.803-.186-.13-.345-.305-.396-.537-.04.215-.152.565-.26.774.204-.096.374-.141.583-.056a.846.846 0 0 1-.899.3c-.254-.063-.503-.199-.497-.39.005-.114.09-.255.254-.244.153.017.164.255.113.356.203-.113.413-.712.096-.802-.249-.068-.48.271-.56.537-.05-.317-.18-.622-.43-.605-.327.023-.22.627-.106.78.022-.215.135-.328.231-.317.085.006.204.068.181.26-.022.193-.294.311-.61.311-.3 0-.831-.09-.882-.672.198.034.503.18.633.378-.04-.35-.04-.599 0-.966a.98.98 0 0 1-.622.379c.057-.25.272-.515.52-.667h-1.294c.249.158.463.418.52.667-.187-.034-.458-.153-.61-.38.039.363.039.617 0 .967.124-.192.423-.339.621-.378-.05.582-.576.672-.876.672-.316 0-.593-.118-.61-.31-.017-.193.096-.255.186-.26.096-.006.215.107.232.316.113-.153.22-.757-.107-.78-.255-.017-.385.288-.43.605-.085-.266-.31-.61-.565-.537-.317.09-.108.684.096.802-.051-.107-.04-.339.113-.356.158-.017.243.125.249.243.01.198-.243.328-.498.39a.854.854 0 0 1-.893-.294c.215-.09.379-.045.588.051a3.125 3.125 0 0 1-.26-.774c-.057.237-.215.413-.407.543a1.101 1.101 0 0 1 .158-.809l-.712.3c.34.379.74 1.232.961 1.944a.61.61 0 0 0-.215.464c0 .327.215.531.424.667-.39.254-.752.565-1.074.927a6.06 6.06 0 0 0-1.136 1.893c.102.102.526.565.628.69.175.226.282.446.288.621.011.323.079.453.248.667.051.068.13.322.142.475h3.538v3.85c-.141.01-.288.044-.407.191.407.164.797.311 1.187.436.034-.255.09-.407.215-.566 0 0-.515-.05-.791-.067v-3.85h3.453a4.962 4.962 0 0 1-.283 1.527c-.18.503-.446.96-.774 1.35-.333.39-.718.696-1.147.905-.068.034-.068.085-.136.113a1.05 1.05 0 0 0-.17.31 1.187 1.187 0 0 0-.079.351c.164.051.249.074.407.113 1.215.305 1.515.215 1.583.164.271-.21.526-.452.763-.718a6.015 6.015 0 0 0 1.136-1.91A6.64 6.64 0 0 0 27.978 14c-.017-.135-.011-.186-.022-.327zm-5.37.265h-3.544c.011-.548.102-1.08.283-1.582.18-.503.446-.961.774-1.351.334-.39.718-.695 1.148-.905.423-.209.87-.316 1.333-.327v4.165h.006zm.057-5.895c-1.182 0-1.99.345-2.465.661-.271-.164-.39-.322-.39-.508 0-.673 1.894-.73 2.855-.73.96 0 2.854.063 2.854.73 0 .186-.119.344-.39.508-.47-.316-1.283-.661-2.464-.661zm.147 5.895v-4.16c.435.023.853.125 1.249.322.43.215.814.52 1.147.905.334.39.594.842.774 1.35.181.504.277 1.035.283 1.583H22.79z" fill-rule="nonzero"/><path d="M25.7 13.254c.063.04.04.136-.04.125A4.014 4.014 0 0 0 25 11.62l.01-.011a.218.218 0 0 0 .148-.181.23.23 0 0 0-.22.096c-.023-.034-.051-.062-.074-.096a3.382 3.382 0 0 0-.752-.701 2.906 2.906 0 0 0-.83-.385c.005-.067.095-.079.124-.016.011-.108-.085-.164-.136-.142a.095.095 0 0 0-.062.085.253.253 0 0 0-.158-.085.213.213 0 0 0 .05.164c-.045 0-.073.017-.09.045-.028.051.011.153.119.164-.051-.045-.029-.124.04-.118v1.35a.224.224 0 0 0-.227.057c.074.073.158.08.226.056v1.47c-.073.006-.09-.085-.034-.124-.113 0-.158.096-.135.152.017.034.05.057.113.051a.219.219 0 0 0-.057.153.21.21 0 0 0 .153-.057c-.006.062.022.096.056.113.051.023.147-.022.147-.13-.04.057-.124.04-.124-.028h1.017a.228.228 0 0 0 .057.22c.068-.073.079-.158.056-.22h1.136c.006.068-.084.09-.124.034 0 .107.102.153.153.13.034-.017.056-.05.05-.113.04.034.091.056.159.056a.238.238 0 0 0-.062-.152c.062.005.096-.023.113-.057.017-.05-.029-.147-.142-.147m-.977-1.786c-.034.029-.046.068-.034.096.011.034.04.068.101.068a.233.233 0 0 0-.079.147.217.217 0 0 0 .164-.04c-.017.063.006.097.04.12.022.016.056.016.09 0 .26.423.441.91.52 1.401a.222.222 0 0 0-.13-.034c0 .074.034.124.068.158h-.865c.006-.056-.022-.101-.056-.113-.034-.011-.074-.005-.119.04a.231.231 0 0 0-.068-.153.231.231 0 0 0-.068.153c-.04-.045-.079-.057-.118-.04-.034.012-.062.057-.057.113h-.735a.23.23 0 0 0 .051-.147.205.205 0 0 0-.147.057v-1.198c.057.011.108-.017.119-.057.011-.034.006-.079-.04-.119.051 0 .102-.022.153-.067a.248.248 0 0 0-.153-.068c.051-.04.051-.085.04-.119-.011-.034-.062-.068-.119-.056v-1.012a.225.225 0 0 0 .125.05.247.247 0 0 0-.034-.146c.231.073.452.186.667.328.254.175.48.39.684.638" fill-rule="nonzero"/><path d="M25.096 12.881a.205.205 0 0 0 .096-.084c-.051.016-.085-.006-.096-.012.034-.022.073 0 .034-.062-.04-.062-.068-.068-.108-.017-.04.045-.316-.011-.316-.22.017.04.056.062.096.079l.034.017a.072.072 0 0 0 .034.005c.028.012.056.017.079.012h.017v-.006c.056-.011.101-.045.107-.107.011-.113-.096-.164-.215-.266-.045-.04-.079-.073-.113-.102-.04-.079-.011-.152-.118-.305-.006-.04-.012-.08-.034-.13a.373.373 0 0 0 .062.435c.113.125.362.249.35.356 0 .023-.028.046-.062.051-.011 0-.023 0-.034-.005-.006 0-.011-.006-.022-.006a.2.2 0 0 1-.051-.023.402.402 0 0 1-.085-.068c-.102-.096-.192-.231-.254-.31-.114-.147-.063-.283-.046-.407.08-.108-.045-.34-.124-.39 0 0 .017-.051-.006-.119-.017.011-.05.011-.068.006-.022-.046-.028-.051-.056-.057-.05-.006-.05-.034-.05-.056-.03.028-.04.05-.069.05-.04 0-.056 0-.073.012-.028.022-.04.034-.085.028-.045 0-.045.028-.045.062.005.023.005.051.034.062.005 0 .005.006.011.006l.04.045.022-.045c.023-.017.08-.023.09.017.006.028.018.04-.022.045-.04.006-.062.006-.102.006-.028 0-.022.034-.022.056 0 .029.034.04.084.029.057-.012.153-.023.153.022 0 .125-.141.119-.17.266a.288.288 0 0 1-.084-.08.616.616 0 0 0-.102-.124.547.547 0 0 0-.107-.084c-.046-.029-.051-.051-.051-.102 0-.045.017-.085.017-.124a.144.144 0 0 0-.012-.04.08.08 0 0 0-.067-.045c.01.005.022.017.028.045-.012.011-.017.023-.017.023a.027.027 0 0 0 0 .04c.005 0 .005.005.005.01 0 .006 0 .012-.005.023 0 .006-.006.006-.006 0-.011-.034-.022-.073-.05-.08h-.023l.005-.005c0-.034-.034-.056-.073-.017a.06.06 0 0 1 .028.012c-.006.01-.006.034-.006.034 0 .028.023.045.057.045.006 0 .006 0 .011.005 0 .006 0 .012.006.017 0 .006 0 .006-.006.006-.056-.023-.079 0-.079.028v.023c-.022.011-.022.045.011.068 0-.012 0-.029.012-.034.005 0 .005 0 .005-.006.006.006.012.011.017.011.006.006.017 0 .034-.01.006-.007.012-.007.017 0 .006.005.012.005.017.01.006.006.006.006 0 .012-.034.034-.028.068.012.079-.023.04-.085.022-.08-.034-.045.08.029.13.096.102 0 .028 0 .079.012.084 0-.005.005-.016.017-.016.005 0 .005.005.005.005 0 .017.006.04.034.045-.005-.01 0-.017.006-.022.011.017.023.04.034.05.034.057.096.204.243.266-.074.046-.124.108-.175.164-.04.04-.102.085-.142.062-.017-.01-.022-.028-.045-.045-.017-.011-.034-.017-.045-.011l-.023.011c-.028-.011-.062.006-.079.023.017 0 .034-.006.051.005v.023c0 .017.011.04.09.034.006 0 .012 0 .012.006-.011.005-.023.017-.04.01-.034-.005-.05-.033-.073-.005 0 0-.006.012-.017.017h-.006c-.028.012-.056.068-.022.09 0-.01.005-.033.022-.045.006.006.011.017.017.017.023.034.045.051.096-.028.006-.006.006 0 .006 0-.006.034-.04.085.006.096 0 0 .01 0 .022.006v.006c.011.04.062.05.085.04-.017-.007-.04-.018-.045-.052h.022c.029-.028-.005-.062.006-.079.006-.006.006-.006.011 0 .012.017.034.051.074.028a.067.067 0 0 0 .028-.05c.05-.023.096-.04.136-.029-.006-.028.022-.062.079-.079.056-.017.079 0 .096.017a.298.298 0 0 1 .056-.096c-.005.215.283.21.35.34a.522.522 0 0 0-.237-.046c-.073.011-.192.079-.209.158-.011.068.057.187.125.232-.085.017-.113-.011-.193.011l-.005-.005c-.068.005-.074-.108-.153-.08-.005 0-.017.012-.022.017-.029 0-.074.04-.063.068.006-.011.023-.022.051-.028v.017c0 .011 0 .028.029.028.017 0 .022-.006.033-.006.006 0 .012.006.012.012 0 .028-.096-.017-.08.068 0 0 .012.017.018.022-.006.023.017.051.062.034-.012-.006-.023-.017-.023-.028h.017c.006 0 .006-.006.011-.011 0 0 0-.006.006-.006s.011.006.011.006c0 .005-.005.01-.005.017 0 0 .005.022.005.028 0 .028.04.062.085.034-.011 0-.04-.006-.045-.023.006 0 .017-.006.023-.006a.043.043 0 0 0 .01-.028c0-.005.007-.005.007-.005h.022c.006 0 .011.005.011.005.012.017.034.034.063.023.017-.006.022-.017.028-.023.011.006.022.011.034.023-.012-.034.011-.057.079-.012l.05-.04s.069.03.091-.005c.04-.034.017-.04.017-.073-.028-.062-.045-.057-.056-.119-.023-.107.13-.17.214-.153.017.068.113.25.272.3.101.034.141-.073.175-.062a.06.06 0 0 1 .017.028c-.006.045 0 .09-.011.119-.012.022-.063.005-.102 0-.023 0-.04.011-.04.017-.028.005-.068.034-.062.068.011-.006.034-.023.057-.029v.017c.005.046.05.057.079.029 0-.006.017 0 .005.005-.022.017-.067.062-.033.074l.022.011c0 .028.017.05.04.057-.006-.012-.012-.023 0-.051h.022c.029 0 .017-.051.046-.068.005-.006.005 0 .005 0-.011.028-.017.068.011.079 0 0 .012.006.023.006.006.022.04.04.074.022-.012-.005-.029-.011-.034-.028.011-.011.017-.023.022-.028.023-.062-.04-.068-.04-.09 0-.035.063-.012.063-.074 0-.006 0-.006-.006-.012.034-.016.062-.033.068-.062-.068.023-.102.012-.107 0z"/><path d="M22.18 14.831l-.063-.005v-.057c.006-.209-.113-.362-.34-.362-.197 0-.581.26-1.118.26-.232 0-.503-.113-.673-.209l-.068.164v-.017c0-.073-.062-.135-.13-.135a.138.138 0 0 0-.135.135c0 .074.056.136.135.136.04 0 .08-.023.102-.051l-.068.158c.023.012.045.023.068.029-.08.813.526 1.853 1.588 2.17.159-.04.317-.017.317.153 0 .107-.051.152-.147.152-.062 0-.102-.04-.102-.079 0-.068.124-.028.136-.08.017-.061-.029-.095-.096-.095-.074 0-.187.045-.187.17 0 .146.119.231.243.231.119 0 .368-.068.334-.356.056 0 .118-.006.135-.062l.012-.164-.057-.006.045-1.865.046.006c.067.005.13-.029.135-.102.006-.073-.056-.107-.113-.119m-1.922.147l1.295 1.86c-.695-.266-1.385-.888-1.295-1.86m1.334 1.685l-1.181-1.696h.107c.063 0 .12-.006.181-.011l.944 1.356c-.017.136-.04.255-.05.35m.084-.536l-.83-1.193c.09-.023.18-.045.265-.08l.627.894a8.803 8.803 0 0 0-.062.379m.198-1.312l-.045-.005c-.057-.006-.125.022-.13.096-.006.073.045.118.118.118l.034.006c0 .017-.005.034-.005.051-.017.102-.046.283-.074.48l-.525-.757c.248-.096.446-.203.553-.203.074 0 .097.04.074.214M21.959 11.078c.254 0 .378-.079.378-.158 0-.277-.695-.107-.695-.277 0-.028.017-.05.051-.08h.011c.35-.033.356-.27.605-.321-.3-.04-.345.192-.469.203.068-.034.096-.113.085-.147-.062.08-.198.09-.272.181-.01.017-.016.034-.01.051-.046.028-.074.062-.074.102 0 .265.706.085.706.277 0 .068-.118.113-.316.113-.147 0-.249-.102-.52-.034 0-.045.09-.13.056-.17.028-.011.045-.034.045-.05a.069.069 0 0 0-.05-.023c.005-.012 0-.028-.012-.04a.105.105 0 0 0-.011-.04c-.011-.005-.028-.028-.062-.039-.028-.017-.051-.017-.062-.017l-.04.006c-.017 0-.034 0-.034.017-.011-.012-.028-.017-.05-.023a.081.081 0 0 0-.006.074c-.023 0-.051.067-.08.062.012.017.017.028.023.028-.023.04-.028.085-.05.085.005.005.01.017.016.022-.022.057-.034.125-.04.159a.221.221 0 0 0-.056-.046c-.04-.022-.04-.045-.034-.084.006-.034.028-.068.034-.096 0-.006-.006-.023-.006-.034-.005-.023-.033-.04-.056-.04.011.006.017.017.017.04-.006.005-.017.017-.023.017-.011.011-.017.022-.005.034.005.005.005.005 0 .005 0 .006 0 .006-.006.017-.006.006-.006 0-.006 0-.005-.028-.011-.062-.034-.062h-.022v-.006c.005-.022-.023-.045-.062-.017a.06.06 0 0 1 .028.012.06.06 0 0 0-.011.028c-.006.028.017.04.045.04.005 0 .011 0 .011.005v.011c0 .006 0 .006-.006.006-.045-.022-.073 0-.079.017v.023c-.017.011-.028.034.006.056 0-.011 0-.028.017-.028h.006c0 .006.01.011.01.011.007 0 .012 0 .035-.005 0 0 .005-.006.011 0 .006 0 .006.005.011.01v.007c-.04.028-.04.056.006.067.006 0 .006 0 .006.006-.012.057-.096.045-.08-.011-.056.062.018.113.085.085h.006c0 .01.006.022.017.022 0 0 .006-.011.017-.011.006 0 .006.005.006.005 0 .012 0 .034.022.04 0-.011.006-.023.011-.023.012 0 .029.046.063.09a.641.641 0 0 1-.159.046c-.01 0-.096-.006-.124.006-.04.022-.136.056-.17.017-.01-.012-.005-.029-.016-.051-.012-.011-.023-.023-.034-.023h-.023c-.017-.017-.05-.022-.068-.005.011.005.028.005.04.022a.043.043 0 0 0-.012.023c-.01.011-.005.034.057.056.006 0 .006.006.006.012-.012.005-.023.005-.034-.006-.023-.023-.029-.045-.057-.028 0 0-.011.005-.017.011h-.005c-.029-.006-.068.034-.051.062.005-.005.017-.022.034-.028.005.006.005.017.005.017.006.034.023.056.085.017.006-.006.006 0 .006.005-.017.029-.057.057-.029.08.006 0 .006.005.017.01l-.005.007c-.006.04.034.062.056.062-.011-.006-.022-.029-.017-.057.006 0 .017.006.017.006.034-.011.017-.051.034-.062.006-.006.006 0 .011.005 0 .017.012.051.046.046.034-.006.05-.034.045-.051v-.006c.017.011.023.023.017.04.006-.006.022-.012.028-.029.006.017.011.04-.011.063.011-.006.05-.023.062-.063.006.006.011.012.011.023.017.006.04.006.074-.006.005 0 .005 0 .005.006-.005.017-.005.028.006.04 0-.006.011-.017.017-.017.011 0 0 .033.023.056.005-.096.056-.056.118-.096.006-.006.006 0 .006.006-.006.011-.011.022-.023.028.023 0 .074-.023.074-.057 0-.005.017-.017.04-.034.022.006.056-.005.067-.028.006.012.012.04 0 .045.062.006.125-.062.153-.073.13-.028-.085-.124.186-.107a.135.135 0 0 0 .08-.029c-.023.04-.023.125.016.13.017 0 .057.017.068.029v.005a.111.111 0 0 0-.056.017c-.068.04-.068-.096-.136-.068 0 0-.011.012-.017.012-.028 0-.062.034-.056.062.005-.006.022-.023.045-.023v.012c0 .01 0 .022.022.022.017 0 .017-.006.029-.006.005 0 .005 0 .005.006 0 .028-.084-.017-.067.057 0 0 .005.017.01.022 0 .023.018.045.052.029-.006-.006-.023-.017-.017-.029h.017s.005 0 .011-.011v-.006c.006 0 .006.006.006.006 0 .006-.006.006-.006.017 0 0 .006.017.006.023-.006.028.034.05.073.028-.011 0-.034-.006-.034-.017.006 0 .017-.006.017-.006.006-.005.006-.011.006-.022 0-.006.006-.006.006-.006h.016c.006 0 .012 0 .012.006.005.017.028.028.05.022.046-.017.006-.056.046-.062.006-.006.022-.006.028 0 .034.006.085.006.096-.011.012-.017.006-.085-.034-.108-.022-.011 0-.04-.022-.068a.32.32 0 0 0 .135.034c.096 0 .006-.017.046-.04a.153.153 0 0 1 .118-.01c.012 0 .023.005.017.022-.011.051.006.057-.005.08-.012.016-.051.005-.08 0-.017 0-.028.01-.028.01-.022.006-.05.029-.05.057a.108.108 0 0 1 .045-.023v.012c.005.034.04.045.062.022.005-.005.011 0 .005.006-.022.017-.056.045-.028.062.006 0 .011.006.017.006 0 .022.017.045.034.045-.006-.011-.011-.017 0-.04h.017c.023 0 .011-.039.034-.056h.005c-.01.023-.01.057.012.062 0 0 .011 0 .017.006.005.017.028.034.056.017-.005 0-.022-.012-.028-.017a.225.225 0 0 0 .017-.023c.017-.05-.028-.05-.028-.073 0-.029.05-.012.05-.062a.05.05 0 0 0-.022-.034v-.006c.011 0 .028.006.034-.017-.034.006-.023-.028-.034-.05 0 0 0-.006.006-.012.01-.006.022-.023.017-.057-.012.017-.057.034-.063 0 0 0 0-.028-.04-.022-.061.005-.095-.029-.214-.04-.006-.028-.011-.034.006-.034m-.775-.282s-.005 0 0 0c-.005 0 0 0 0 0m.181-.046c.012.006.057.029.085.034-.04.012-.028.023-.057.023-.022-.006-.033-.034-.028-.057m-.05-.028c-.012.017-.035.034-.052.017-.016-.017.006-.022-.016-.056l.067.04m-.079.169c.006-.012.012-.023.017-.023.017 0 .023 0 .028-.017.006-.017-.01-.022-.022-.034.017-.005.022-.011.017-.017-.012-.011-.023.006-.028 0-.006-.005.01-.011.01-.017.006-.005.012-.005.023 0l.068.034c.012.006.012.006.012.017 0 .006.005.017-.006.023-.006.005-.006-.023-.017-.023-.011 0-.011.006-.006.023-.017-.006-.028-.011-.04 0-.005.011-.005.022.006.034.006.005 0 .017-.005.034-.006.017-.023.034-.051.022-.017-.017-.011-.04-.006-.056M22.303 12.017c0-.08-.084-.125-.333-.125s-.803.09-.803-.045c0-.068.108-.062.238-.057a.11.11 0 0 0 .05.029c.317.09.696-.074.888-.023-.226-.175-.418.006-.661-.045.141 0 .192-.04.198-.08-.108.074-.317-.033-.447.046-.006.006-.017.011-.023.017-.175-.006-.316-.006-.316.113 0 .249.661.102.87.102.21 0 .255.022.255.062 0 .056-.204.073-.322.073-.181 0-.724-.096-1.052-.028.028-.05.085-.124.057-.164.028-.011.05-.04.05-.062-.016-.017-.039-.023-.062-.028.012-.017-.005-.029-.017-.045-.005-.006-.01-.04-.016-.046-.012-.011-.034-.034-.074-.05-.04-.018-.062-.018-.073-.023l-.046.005c-.017-.005-.04-.005-.04.017a.073.073 0 0 0-.056-.022c-.011.028-.017.05-.005.085-.029 0-.063.079-.09.067.01.023.022.029.027.034-.022.046-.033.096-.062.096.017.023.034.034.04.04-.006.034-.006.068-.006.096l-.05-.017h-.018c-.005 0-.017-.006-.022-.006.005 0 .017.006.022.006l-.034-.011c-.028-.023-.062-.062-.107-.09-.045-.029-.05-.051-.045-.102 0-.046.022-.085.022-.125a.144.144 0 0 0-.01-.04c-.007-.028-.04-.044-.063-.044.011.005.023.016.023.045-.012.005-.023.017-.023.022-.011.012-.011.029 0 .046v.01c0 .007 0 .012-.006.018-.005.005-.005.005-.005 0-.012-.034-.023-.074-.051-.08 0 0-.017-.005-.023 0v-.005c0-.034-.034-.056-.073-.017a.06.06 0 0 1 .028.011.08.08 0 0 0-.011.034c-.006.034.017.046.05.046.006 0 .012.005.012.005 0 .006 0 .011.005.017 0 .006 0 .006-.005 0-.057-.022-.08 0-.085.028v.023c-.023.017-.028.045.006.068 0-.011 0-.034.011-.034 0 0 .006 0 .011-.006a.081.081 0 0 1 .012.017c.005 0 .017 0 .034-.011.005-.006.01-.006.01 0 .006.006.012.006.018.011.005 0 .005.006 0 .012-.04.04-.034.073.011.079.006 0 .006.005.006.011-.006.068-.102.056-.09-.011-.057.079.033.141.101.101.006-.005.006 0 .006 0 0 .012.005.023.022.029 0-.006.006-.017.017-.017.006 0 .006.005.006.005 0 .017.006.04.034.046-.006-.012 0-.029.011-.029s.045.057.096.085c.045.017.08.068.108.04-.006.045.04.101.028.101-.017 0-.141-.01-.175.006-.046.028-.164.068-.198.017-.011-.017-.006-.034-.023-.057-.011-.016-.028-.028-.04-.028h-.028c-.017-.022-.062-.022-.079-.011.012 0 .029.006.045.028-.005.006-.01.023-.01.023-.012.017-.006.04.067.068.006 0 .011.005.006.01a.035.035 0 0 1-.04-.005c-.028-.022-.034-.056-.068-.034l-.022.012h-.006c-.034 0-.08.034-.062.073.005-.006.017-.028.04-.034 0 .012.005.023.005.023.006.034.023.062.096.017.006-.006.006 0 .006.005-.017.034-.068.063-.028.09 0 0 .005.007.016.012 0 .006-.005.006-.005.006-.006.045.04.073.062.073-.011-.011-.028-.034-.023-.062.006 0 .017.006.023.006.04-.017.023-.057.04-.074.005-.005.01 0 .01 0 0 .017.012.062.057.057.04-.006.063-.04.057-.062 0-.006 0-.006.006-.006.017.006.028.023.022.045.006 0 .023-.017.034-.034.011.023.011.046-.017.074a.11.11 0 0 0 .068-.074c.006.006.011.017.017.023 0 0 0-.006.006-.006a.206.206 0 0 0 .084 0c.006-.005.006 0 .006.006-.006.017-.006.034.006.045 0-.006.011-.022.017-.022.01 0 0 .045.028.067.006-.107.068-.067.136-.113.005-.005.005 0 .005.006 0 .011-.011.028-.028.034.073.017.198-.096.215-.147.028-.006.056-.006.073-.006.215.017.068-.198.413-.135.022 0 .062-.023.085-.04-.023.045-.029.141.022.147a.198.198 0 0 1 .08.034c.005.006 0 .006 0 .006a.385.385 0 0 0-.069.017c-.073.05-.073-.114-.152-.08-.006 0-.017.012-.023.017-.028 0-.073.034-.068.068a.086.086 0 0 1 .051-.028v.017c0 .011.006.022.029.022.017 0 .017-.005.028-.005.005 0 .011 0 .011.011 0 .028-.096-.017-.079.068 0 0 .011.017.017.023-.006.022.017.05.062.033-.006-.005-.022-.016-.022-.028.005 0 .016.006.016.006.006 0 .012-.006.012-.017h.005c.006 0 .006 0 .006.006 0 .005-.006.01-.006.017 0 0 .006.022.006.028-.006.028.04.062.085.028-.011 0-.04-.006-.045-.023.011-.005.017-.01.022-.01a.043.043 0 0 0 .012-.03c0-.005.005-.005.005-.005h.017c.011 0 .011 0 .017.006.011.017.034.04.062.022.051-.016.012-.062.051-.073.011 0 .023-.006.034 0 .04.011.102.011.113-.011.011-.023.006-.096-.04-.119-.022-.011 0-.045-.022-.085a.436.436 0 0 0 .158.034c.113 0 .142-.017.192-.045a.169.169 0 0 1 .136-.011c.017 0 .028.01.023.028-.012.056.005.062-.006.09-.011.023-.062.006-.096 0-.023 0-.034.012-.034.017-.028.006-.062.029-.057.062a.134.134 0 0 1 .051-.028v.011c.006.04.051.057.074.029.005-.006.011 0 .005.005-.022.017-.062.057-.028.068l.023.012c0 .022.017.05.034.056-.006-.017-.012-.023 0-.05h.022c.023 0 .012-.052.04-.063.006-.006.006 0 .006 0-.012.028-.017.062.01.073 0 0 .012 0 .023.006.006.023.034.04.068.023-.005-.006-.022-.012-.028-.023.006-.011.017-.022.017-.028.017-.062-.034-.062-.034-.085 0-.028.057-.011.057-.068a.049.049 0 0 0-.023-.04c-.006 0-.006-.005 0-.005.017 0 .034.006.045-.023-.045.006-.034-.033-.04-.056 0-.006 0-.006.006-.011.017-.012.023-.029.017-.068-.017.022-.062.045-.068 0 0 0-.005-.034-.045-.023-.073.006-.13-.011-.271-.022.192.022.43-.023.43-.113m-1.934.146c0-.005 0-.005 0 0 0-.005 0-.005 0 0m.396-.356a.307.307 0 0 0 .096.04c-.045.006-.034.028-.062.028-.028-.005-.04-.04-.034-.068m-.062-.028c-.011.023-.04.04-.062.017-.017-.023 0-.028-.023-.068a.83.83 0 0 0 .085.051m-.09.198c.005-.017.016-.028.022-.028.017 0 .028-.006.034-.017.006-.017-.011-.029-.028-.04.017-.005.028-.011.017-.022-.012-.012-.029.005-.034 0-.006-.012.011-.017.017-.017.005-.006.017-.006.028 0l.08.04c.01.005.016.01.016.016 0 .011 0 .023-.006.028-.005 0-.005-.022-.022-.028-.011 0-.011.011-.006.028-.017-.005-.034-.017-.045 0-.006.017-.006.029.006.04.005.006 0 .023-.006.04-.006.016-.028.045-.057.028-.028-.023-.028-.051-.017-.068M22.196 13.102c0-.074-.079-.119-.316-.119-.232 0-.961.09-.961-.045 0-.085.243-.051.424-.045.005.01.022.022.05.034.3.084.622-.12.837-.046-.17-.158-.396.017-.622-.034.136 0 .277-.028.283-.062-.102.068-.401-.045-.52.034-.006.006-.017.011-.017.017-.226-.006-.497-.034-.497.102 0 .237.825.096 1.023.096.197 0 .237.023.237.056 0 .057-.198.068-.305.068-.181 0-.955-.101-1.26-.005.016-.051.09-.13.056-.176.028-.01.05-.034.05-.056-.016-.017-.039-.023-.056-.028.006-.012 0-.029-.017-.04-.005-.006-.011-.034-.017-.04a.273.273 0 0 0-.068-.045c-.033-.017-.056-.017-.067-.017-.012-.005-.04.006-.046.006-.017 0-.04 0-.04.017a.084.084 0 0 0-.05-.023c-.011.023-.017.046-.006.085-.028 0-.056.074-.084.062.01.023.016.029.028.029-.023.04-.034.09-.062.096.01.01.017.022.028.028a.33.33 0 0 0-.011.073l-.023-.005c-.017 0-.034 0-.034-.006-.011 0-.023-.006-.04-.006-.04 0-.062-.062-.124-.101-.045-.029-.05-.051-.05-.096 0-.04.022-.08.016-.12a.117.117 0 0 0-.011-.033c-.006-.028-.045-.045-.062-.04.011.006.022.017.022.04-.005.006-.017.017-.017.023-.005.01-.01.028.006.04V12.841c-.006.005-.006.005-.006 0-.01-.029-.022-.074-.05-.074H19.8v-.005c0-.029-.034-.057-.068-.017a.06.06 0 0 1 .028.011c-.006.011-.006.028-.006.034 0 .034.023.04.057.045.006 0 .006 0 .011.006 0 .005.006.011.006.011 0 .006 0 .006-.006.006-.05-.023-.073 0-.073.022v.023c-.017.017-.023.045.011.062 0-.006 0-.028.011-.034h.006a.081.081 0 0 0 .017.011c.006.006.017 0 .028-.01h.017c.006 0 .011.005.017.01.006.006.006.006 0 .012-.034.034-.028.068.017.079.006 0 .006.006.006.011-.006.068-.09.051-.085-.011-.045.073.04.136.102.096h.005c.006.011.012.023.023.023 0-.006.006-.012.017-.012.006 0 .006 0 .006.006 0 .017.005.04.033.045-.005-.017 0-.028.006-.028.011 0 .062.09.153.141.017-.005.045-.005.056-.028 0 .006.012.017.023.023.005.045.034.096.022.096-.017 0-.163-.006-.192.011-.045.023-.152.062-.186.017-.012-.017-.006-.028-.023-.051-.011-.017-.022-.028-.034-.028h-.028c-.017-.017-.057-.023-.074-.006.012 0 .029.006.046.028a.043.043 0 0 0-.012.023c-.005.017-.005.04.068.062 0 0 .012.006.006.011-.006.006-.023.006-.04-.005-.022-.023-.028-.051-.062-.034l-.022.011h-.006c-.028-.005-.074.034-.057.068a.061.061 0 0 1 .04-.034c.006.006.006.017.006.023.005.034.022.062.096.017.005-.006.005 0 .005.005-.017.029-.068.063-.028.085l.017.011v.006c-.006.04.034.068.057.068-.012-.011-.029-.034-.023-.062.011.005.017.005.023.005.033-.01.016-.056.04-.067.005-.006.01 0 .01.005 0 .017.012.057.051.051.04-.006.057-.04.057-.056 0 0 0-.006.005 0 .012.01.023.022.023.045.006 0 .023-.012.028-.028a.066.066 0 0 1-.017.073c.017-.006.057-.023.068-.068.006.006.011.017.017.023 0-.006 0-.006.006-.006.011.006.04.006.079 0 .006 0 .006 0 .006.006 0 .017 0 .034.005.045 0-.006.012-.023.017-.023.011 0 0 .04.023.063.011-.102.13-.051.198-.09.005-.007.005-.007.005.005-.005.011-.011.028-.028.034a.149.149 0 0 0 .085-.034c-.006 0-.006.005-.012.005l.108-.045c0-.011.006-.022.006-.034.01-.005.028-.005.033-.005 0 0 0 .005-.005.005.068.006.062-.05.09-.045.385.051.164-.164.616-.124.023 0 .034-.012.051-.029-.022.046-.022.12.023.125a.198.198 0 0 1 .079.034c.006.005 0 .005 0 .005-.028.006-.057.012-.062.017-.074.046-.074-.107-.147-.073-.006 0-.017.011-.023.017-.028 0-.068.034-.062.068.006-.012.023-.023.045-.029v.017c0 .012 0 .023.028.023.017 0 .023-.006.029-.006.005 0 .005.006.005.006 0 .028-.09-.017-.073.062 0 0 .011.017.011.023 0 .022.017.045.057.034-.006-.006-.023-.017-.023-.029h.023s.005 0 .005-.01c0 0 0-.007.006-.007s.006.006.006.006c0 .006-.006.011-.006.017l.006.023c0 .028.04.056.079.028-.011 0-.04-.006-.04-.023.006-.005.017-.005.017-.005a.043.043 0 0 0 .012-.029c0-.005.005-.005.005-.005h.017c.011 0 .011.005.017.005.006.017.028.034.057.023.005-.04-.034-.085.005-.096.006 0 .023-.006.029 0 .04.011.096.006.107-.011.011-.023.006-.09-.04-.113-.022-.012 0-.04-.022-.08.045.017.09.034.147.034.107 0 .135-.017.18-.045.051-.034.114-.017.13-.011.012 0 .023.005.023.028-.011.057.006.062-.005.085-.012.022-.057.006-.09 0-.024 0-.035.011-.035.017-.028.005-.056.028-.056.062.011-.006.028-.023.05-.028v.011c.006.04.046.05.068.023.006-.006.012 0 .012.005-.023.017-.063.057-.029.068 0 0 .012.006.017.011 0 .023.017.046.034.051-.005-.011-.011-.022 0-.045h.017c.023 0 .012-.045.04-.062 0-.006.005 0 .005 0-.01.028-.01.062.012.068 0 0 .011.005.017.005.005.023.034.04.068.023-.006-.006-.023-.011-.029-.023.006-.005.017-.022.017-.022.017-.057-.034-.057-.034-.085 0-.028.057-.011.057-.068 0-.011-.006-.028-.028-.034v-.005c.017 0 .033.005.04-.017-.046 0-.03-.034-.035-.057v-.011c.012-.011.023-.028.017-.062-.017.022-.062.045-.062 0 0 0-.006-.029-.045-.023-.074.006-.119-.006-.255-.023.147 0 .396-.028.396-.118m-1.724-.192c.011.01.062.028.09.04-.045.005-.033.022-.062.022-.022 0-.028-.04-.028-.062m-.056-.029c-.012.023-.04.04-.057.017-.022-.022 0-.022-.022-.062a.299.299 0 0 0 .079.045m-.085.187c.006-.017.011-.028.022-.028.017 0 .023 0 .029-.017.005-.017-.012-.029-.029-.04.017-.006.029-.011.017-.023-.01-.005-.028.006-.033 0 0-.005.01-.01.016-.017.006-.01.012-.005.023 0l.074.034c.01.006.017.006.017.017 0 .006.005.023-.006.023s-.006-.023-.023-.023c-.011 0-.011.012 0 .029-.017-.006-.034-.017-.045 0a.035.035 0 0 0 .006.04c.005.005 0 .022-.006.039s-.028.04-.05.028a.046.046 0 0 1-.012-.062M25.548 14.916c0-.006 0-.006.005-.006.017-.01.029-.028.023-.062-.017.023-.062.045-.068.006 0 0 0-.034-.04-.023-.073.006-.14-.005-.276-.017-.006 0-.017-.005 0-.011.135-.011.384-.028.384-.119 0-.073-.079-.118-.316-.118-.232 0-.961.084-.961-.046 0-.084.243-.05.424-.045.005.012.022.023.05.034.306.085.65-.141.831-.085-.237-.084-.39.063-.616.012.136 0 .277-.029.283-.063-.102.068-.401-.045-.52.034-.006.006-.017.012-.023.017-.226 0-.497-.028-.497.102 0 .232.825.096 1.017.096.198 0 .243.023.243.057 0 .056-.198.073-.305.073-.186 0-.955-.102-1.26-.011.017-.051.09-.13.056-.17.028-.011.051-.034.051-.062-.017-.017-.04-.022-.056-.028.005-.011-.006-.028-.017-.04 0 0-.012-.034-.017-.04a.174.174 0 0 0-.068-.044c-.034-.017-.057-.017-.068-.017-.006-.006-.04.005-.045.005-.017 0-.04 0-.04.017-.017-.011-.034-.022-.056-.022a.107.107 0 0 0-.006.084c-.028 0-.057.074-.085.063.012.022.017.028.028.033-.022.04-.033.09-.062.09.017.023.029.035.04.035-.006.022-.006.05-.006.068l-.04-.012h-.039c-.011-.005-.023-.005-.04-.005-.039-.006-.067-.063-.13-.102-.045-.028-.045-.051-.045-.102 0-.04.017-.073.017-.113a.144.144 0 0 0-.011-.04c-.006-.022-.04-.045-.062-.039.011.006.022.017.022.04-.005.01-.017.022-.022.022-.006.011-.012.028 0 .04.005 0 .005.005.005.005 0 .006 0 .012-.005.017 0 .006-.006.006-.006 0-.006-.028-.022-.067-.05-.073h-.023v-.006c0-.028-.034-.05-.068-.017a.06.06 0 0 1 .028.012c-.006.01-.006.028-.011.028 0 .028.022.045.056.045.023-.006.023 0 .023 0s0 .011.006.011c0 .006 0 .006-.006.006-.051-.023-.074 0-.08.028v.023c-.016.011-.022.04.012.062 0-.006 0-.028.011-.034h.006c.006.006.011.011.017.011.006.006.011 0 .034-.01h.011c.006.005.006.005.017.01.006.006.006.006 0 .012-.04.034-.034.068.017.079.006 0 .006.006.006.011-.006.068-.09.051-.085-.011-.045.079.04.136.102.096.005-.006.005 0 .005 0 .006.011.012.023.023.023 0 0 .006-.012.017-.012.006 0 .006.006.006.006 0 .017.005.04.034.045-.006-.017 0-.028.005-.028.011 0 .057.096.153.152-.006-.005.034-.022.056-.033a.088.088 0 0 0 .034.045l.017-.006c-.005.045.045.09.04.09-.012 0-.102-.01-.136.006-.045.023-.153.062-.186.017-.012-.017-.006-.028-.023-.056-.011-.017-.023-.029-.034-.029h-.028c-.017-.017-.057-.022-.074-.005.012.005.029.005.04.028a.043.043 0 0 0-.011.023c-.006.017-.006.04.062.062 0 0 .011.005.005.011-.01.006-.022.006-.04-.006-.027-.017-.027-.05-.061-.033l-.023.01h-.006c-.028 0-.079.035-.056.074a.061.061 0 0 1 .04-.034c0 .006.005.017.005.023.006.034.023.062.096.017.006-.006.006 0 .006.006-.017.034-.062.062-.028.084l.017.012v.005c-.006.04.033.068.062.068-.012-.011-.029-.028-.023-.062.011 0 .017.006.023.006.034-.017.017-.057.04-.068.005 0 .005 0 .01.005 0 .017.012.057.051.051.04-.005.057-.034.051-.056 0-.006 0-.006.006-.006.011.011.023.023.017.045.006-.005.023-.017.028-.028a.066.066 0 0 1-.017.074.11.11 0 0 0 .068-.074c.006.006.011.017.017.023v-.006c.011.006.04.011.08 0 .005 0 .005 0 .005.006-.006.017-.006.034.005.04 0-.006.012-.023.017-.023.012 0 0 .04.023.068.011-.108.068-.063.13-.108.006-.006.006-.006.006.006a.075.075 0 0 1-.029.034c.023.017.12-.04.12-.08 0-.01.033-.01.067-.016.068.005.056-.051.085-.046.384.051.164-.164.616-.118.022 0 .034-.023.05-.046-.022.046-.022.13.023.142.023 0 .062.017.08.034.005.005 0 .005-.006.005a.117.117 0 0 0-.062.017c-.068.046-.074-.107-.147-.079-.006 0-.017.011-.023.017-.034 0-.068.034-.062.062a.09.09 0 0 1 .045-.028v.017c0 .011 0 .023.028.023.017 0 .017-.006.029-.006.005 0 .005 0 .005.006 0 .028-.09-.017-.079.062 0 0 .011.017.017.022-.006.023.017.046.057.034-.006-.005-.023-.017-.017-.028h.017c.005 0 .005 0 .01-.011 0-.006 0-.006.007-.006.005 0 .005.006.005.006 0 .005-.005.011-.005.017 0 0 0 .022.005.028-.005.028.04.056.08.028-.012 0-.04-.005-.04-.022.011-.006.017-.012.022-.012.006-.005.006-.017.006-.028 0-.006.006-.006.006-.006h.022c.012 0 .012.006.012.006.01.017.028.034.056.023.051-.017.006-.063.051-.068h.034c.04.011.096.011.107-.011.012-.023.006-.09-.04-.114-.022-.01 0-.045-.022-.079.045.017.085.04.147.04a.318.318 0 0 0 .192-.045.156.156 0 0 1 .13-.012c.012 0 .023.006.017.029-.017.056 0 .062-.017.084-.011.023-.056.006-.09 0-.017 0-.034.012-.034.017-.028.006-.062.029-.062.063.011-.006.028-.023.05-.023v.011c0 .04.04.051.068.023.006-.006.012 0 .006.006-.023.016-.068.05-.034.067 0 0 .011.006.017.012-.006.022.011.045.034.05-.006-.01-.006-.022.006-.045h.017c.022 0 .017-.045.045-.062.005-.006.005 0 .005 0-.01.028-.022.062.006.068 0 0 .011.006.017.006.006.022.034.034.062.017-.005-.006-.022-.012-.028-.023a.123.123 0 0 1 .023-.028c.022-.057-.029-.057-.023-.08 0-.028.057-.01.062-.067 0-.006 0-.029-.022-.034v-.006c.017 0 .028.006.045-.017-.028-.017-.017-.056-.017-.079zm-1.701-.44c.01.01.067.027.09.039-.045.005-.034.022-.057.022-.028 0-.04-.034-.033-.062zm-.057-.029c-.011.023-.04.04-.057.017-.022-.017 0-.023-.022-.062a.299.299 0 0 0 .079.045zm-.085.192c.006-.017.017-.028.023-.028.017 0 .022 0 .028-.017.006-.017-.011-.028-.028-.034.017-.006.028-.017.017-.023-.012-.01-.028.006-.028 0-.006-.01.005-.017.01-.022.006-.006.012-.006.023 0l.074.034c.006.005.011.011.011.022 0 .006.006.023-.005.023-.012.006-.006-.023-.017-.023-.012 0-.012.012-.006.029-.017-.006-.034-.017-.045 0-.006.017-.006.022.005.04.006.005 0 .016-.005.039-.006.017-.029.04-.051.022-.017-.017-.017-.05-.006-.062zm-.045-.192c0 .006-.006.006 0 0-.006.006 0 0 0 0zm.35.554c.006 0 0 0 0 0zM24.49 15.51c.007.017.023.028.052.04.288.084.621-.137.791-.086-.226-.079-.367.057-.588.012.13 0 .26-.029.272-.063-.102.068-.38-.04-.498.034l-.017.017c-.158-.005-.288-.005-.288.102 0 .226.599.09.791.09.187 0 .164.017.164.057 0 .05-.215.068-.322.068-.164 0-.65-.085-.95-.028.023-.051.08-.113.046-.147.028-.012.045-.034.045-.057a.073.073 0 0 0-.057-.022c.006-.012 0-.029-.011-.04-.006 0-.011-.034-.017-.04a.273.273 0 0 0-.068-.045c-.034-.017-.05-.017-.068-.017l-.04.006c-.016 0-.033 0-.039.017a.084.084 0 0 0-.05-.023c-.012.028-.018.045-.006.08-.023 0-.051.067-.08.062.012.016.018.028.023.028-.022.04-.034.085-.056.09.005.012.017.017.022.023l-.017.085-.028-.012h-.011c-.034-.005-.057 0-.119-.034-.045-.022-.045-.045-.045-.09 0-.04.017-.074.017-.113a.117.117 0 0 0-.011-.034c-.012-.023-.04-.045-.063-.04.012.006.023.017.023.04-.011.011-.017.017-.017.023a.027.027 0 0 0 0 .04V15.56c0 .006-.006.006-.006 0-.011-.028-.022-.067-.045-.067h-.017v-.006c0-.028-.034-.05-.062-.017a.06.06 0 0 1 .028.011.266.266 0 0 0-.011.029c0 .028.023.04.05.04.006 0 .006 0 .012.005 0 0 0 .005.006.011 0 .006 0 .006-.006 0-.05-.023-.073.006-.073.023v.022c-.017.012-.023.04.011.062 0-.01 0-.028.011-.028.006 0 .006-.005.006-.005.006.005.011.01.011.017.006 0 .012 0 .028-.012.006-.005.006-.005.012 0 .005.006.011.006.017.012.005.005 0 .005 0 .005-.034.034-.029.068.017.074.005 0 .005.005.005.011-.005.062-.084.05-.084-.011-.046.073.04.124.101.09 0-.006.006 0 .006 0 .006.011.011.023.023.023 0-.006.005-.012.01-.012.007 0 .007 0 .007.006 0 .017.005.04.028.04-.006-.012 0-.023.005-.023.012 0 .012-.028.085.017a.068.068 0 0 0 .028.028l.057-.011c-.006.045.006.107 0 .107-.017 0-.102-.011-.13.006-.04.023-.147.062-.175.017-.012-.017-.006-.028-.023-.051-.011-.017-.022-.028-.034-.028h-.022c-.017-.017-.057-.023-.074-.006.011 0 .028.006.04.028-.006.006-.006.017-.012.023-.005.017-.005.04.063.062 0 0 .005.006 0 .011-.012.006-.023.006-.034-.005-.029-.023-.029-.051-.057-.028l-.022.01-.006-.005c-.028 0-.074.034-.051.068.006-.006.017-.028.034-.028 0 .005.006.017.006.017.005.034.022.062.09.017.006-.006.006 0 .006.005-.017.029-.062.057-.029.08 0 0 .006.005.017.01 0 .006 0 .006-.005.006-.006.04.034.068.056.063-.011-.006-.022-.029-.022-.057.011 0 .017.006.022.006.034-.012.017-.051.034-.062.006-.006.006 0 .006.005.005.017.011.051.05.051.04-.006.057-.034.052-.056 0 0 0-.006.005 0 .012.005.023.022.017.045.006-.006.023-.017.028-.028.006.016.012.045-.017.067.017-.005.057-.022.063-.067.005.005.011.016.017.022l.005-.006c.012.006.04.006.08 0 .005 0 .005 0 .005.006-.006.017-.006.034.006.04 0-.006.011-.023.017-.023.011 0 0 .04.022.062.012-.096.09-.073.153-.113.006-.005.006 0 .006.006-.006.011-.012.022-.029.034.068.04.136-.051.159-.102l.016-.017c.006.011.006.023-.01.028.061.006.056-.045.084-.045.198.017.045-.164.362-.107.022.005.062-.017.079-.034-.023.04-.023.13.022.135a.175.175 0 0 1 .074.034c.006.006 0 .006 0 .006-.023 0-.051.006-.062.017-.068.04-.068-.102-.142-.073-.005 0-.01.005-.017.01-.028 0-.067.035-.062.063.006-.006.023-.023.046-.023v.017c0 .012.005.023.028.023.017 0 .017-.006.028-.006.006 0 .006.006.006.012 0 .022-.085-.017-.074.056 0 0 .006.017.012.023-.006.022.016.045.056.034-.006-.006-.023-.017-.017-.029h.017s.006-.005.006-.01c0-.007 0-.007.005-.007.006 0 .012.006.012.006 0 .006-.006.006-.006.017l.006.023c-.006.022.034.056.073.028-.011 0-.04-.006-.04-.023.006-.005.018-.005.018-.005.005-.006.005-.017.005-.029 0-.005.006-.005.006-.005h.017c.011 0 .011 0 .011.005.006.017.028.034.057.023.05-.017.005-.062.045-.068.005 0 .017-.005.028 0 .04.006.09.006.102-.011.011-.017.005-.085-.034-.113-.023-.011.006-.04-.023-.074.04.017.085.034.142.034a.393.393 0 0 0 .203-.04.141.141 0 0 1 .124-.01c.012 0 .023.005.012.028-.023.05-.012.056-.029.079-.016.022-.056.005-.084 0-.017 0-.034.011-.034.011-.028.006-.062.034-.068.057.011-.006.028-.023.05-.023 0 .006-.005.011-.005.011-.005.034.028.046.057.023.005-.006.011 0 .005.006-.022.017-.073.05-.045.062.006 0 .011.005.017.005-.011.023 0 .046.017.051-.006-.011-.006-.022.011-.045h.017c.023 0 .023-.045.051-.062h.006c-.017.028-.028.056-.006.068 0 0 .011.005.017.005 0 .023.023.034.062.017-.005-.005-.022-.011-.022-.022l.022-.023c.029-.056-.017-.056-.011-.079.006-.028.057-.011.073-.062 0-.012 0-.028-.016-.034-.006 0-.006-.006 0-.006.016 0 .028.006.045-.017-.04.006-.017-.034-.017-.05 0-.006 0-.006.005-.012.017-.011.029-.028.034-.056-.017.017-.067.04-.062 0 0 0 .006-.029-.034-.023-.068.006-.164-.006-.294-.017-.011 0-.017-.006 0-.011.13-.012.39-.029.39-.113 0-.068-.011-.113-.237-.113-.226 0-.73.084-.73-.04.023-.085.125-.08.244-.073m-.73-.017c-.01.022-.039.04-.056.017-.017-.017 0-.023-.017-.063.017.017.057.046.074.046m.04.135c-.006 0-.006-.022-.018-.022-.011-.006-.011.005-.005.022-.017-.005-.034-.017-.04 0-.006.017-.006.023.006.034.005.006 0 .017-.006.034s-.028.04-.05.023c-.023-.012-.023-.04-.018-.057.012-.017.017-.028.023-.028.017 0 .023 0 .028-.017.006-.017-.011-.028-.028-.04.017-.005.028-.01.017-.017-.011-.01-.028.006-.028 0-.006-.005.005-.01.01-.017.007-.005.012-.005.024 0l.073.034c.006.006.011.006.011.023.006.011.012.028 0 .028m.04-.05c-.023 0-.034-.035-.034-.063a.295.295 0 0 0 .085.034c-.034.017-.023.034-.051.028M24.253 16.55c.006.017.023.028.051.04.289.078.616-.137.797-.086-.226-.079-.373.063-.588.017.13 0 .266-.028.272-.062-.102.062-.379-.045-.498.028a.044.044 0 0 0-.022.023c-.09.017-.164.068-.164.136 0 .192.74.04.74.101 0 .051-.147.096-.339.096-.147 0-.401-.096-.723-.016v-.006c.022-.057.09-.136.062-.17.028-.011.045-.034.045-.05a.069.069 0 0 0-.05-.023c.005-.017 0-.028-.018-.04 0 0-.005-.034-.017-.034-.005-.005-.028-.028-.062-.04-.034-.016-.05-.016-.062-.016l-.04.005c-.017 0-.034 0-.034.017-.01-.01-.028-.017-.045-.022a.094.094 0 0 0-.005.079c-.029 0-.051.068-.074.056.011.017.017.029.023.029-.023.04-.029.085-.057.085.012.01.017.022.028.028a.398.398 0 0 0-.01.18c-.046-.045-.114-.152-.16-.18-.039-.023-.044-.045-.044-.09 0-.04.017-.068.017-.108a.117.117 0 0 0-.012-.034c-.005-.023-.04-.04-.056-.034.011.006.022.017.022.04l-.017.017c-.005.011-.01.022 0 .04.006 0 .006.005.006.005 0 .006 0 .011-.006.017 0 .005-.005.005-.005 0-.011-.028-.023-.062-.045-.068h-.017v-.006c0-.028-.029-.045-.063-.017.006 0 .023.006.023.012-.006.005-.006.028-.006.028 0 .028.017.04.046.04.005 0 .011 0 .011.005 0 .006.006.006.006.011 0 .006 0 .006-.006.006-.05-.022-.068.006-.074.023v.022c-.016.012-.022.034.012.057 0-.011 0-.028.011-.028 0 0 .006 0 .006-.006l.011.011c.006 0 .011 0 .028-.011h.012c.005.006.005.006.017.011.005 0 0 .006 0 .006-.034.034-.029.062.017.068.005 0 .01.005.01.011-.005.062-.084.045-.078-.011-.046.068.034.124.09.085.006-.006.006 0 .006 0 0 .01.005.016.017.022 0-.006 0-.011.011-.011.006 0 .006.005.006.005 0 .017.005.034.028.04-.006-.011 0-.023.006-.023.01 0 0 .09.084.142.017.05.057.079.102.073.017.034.034.068.028.068-.01 0-.113-.011-.14 0-.024.011-.057.028-.097.034l-.006.006s0-.006.006-.006c-.028.006-.057 0-.073-.017-.012-.011-.006-.028-.017-.05-.012-.018-.023-.023-.034-.023h-.023c-.017-.017-.05-.017-.068-.006.012 0 .028.006.04.022 0 .006-.006.017-.006.023-.011.011-.006.034.057.057.005 0 .011.005.005.005a.036.036 0 0 1-.034 0c-.022-.017-.028-.045-.056-.028l-.017.011h-.006c-.028 0-.068.034-.05.062.005-.01.01-.022.033-.028 0 .006.006.017.006.017.006.034.017.057.085.011.005-.005.005 0 .005.006-.017.028-.056.051-.022.074 0 0 .005.005.017.01l-.006.007c-.006.04.034.062.057.062a.075.075 0 0 1-.023-.057c.006.006.017.006.023.006.028-.011.017-.051.034-.062.005-.006.005 0 .005.005.006.017.011.051.051.046.034-.006.05-.034.045-.051 0 0 0-.006.006 0 .011.005.023.022.017.04.006 0 .017-.018.028-.029.006.017.011.04-.017.062.011 0 .051-.022.062-.062.006.006.012.011.012.023h.005c.012.005.04.005.074 0 .005 0 .005 0 .005.005a.048.048 0 0 0 0 .04c0-.006.012-.023.017-.023.012 0 0 .034.023.057.011-.09.057-.057.119-.096.005-.006.005 0 .005.005-.005.012-.011.023-.028.029.023 0 .09-.029.09-.063 0-.01.046-.05.057-.164h.023c.079-.005.113-.062.192-.067a.178.178 0 0 0-.023.113c0 .045.057.09.068.101.006.006 0 .006 0 .006-.023.006-.05.011-.056.017-.063.04-.068-.096-.13-.068-.006 0-.017.012-.017.017-.029 0-.063.028-.057.057.006-.012.023-.023.04-.029v.012c0 .011.005.022.028.022.011 0 .017-.005.028-.005.006 0 .006 0 .006.005 0 .029-.085-.017-.068.057 0 0 .006.017.011.022-.005.023.017.04.051.034-.006-.005-.022-.017-.017-.028.006 0 .017.006.017.006.006 0 .006-.006.011-.012v-.005c.006 0 .006.005.006.005s-.006.006-.006.017l.006.017c-.006.029.034.051.074.029-.012 0-.034-.006-.04-.017.006 0 .017-.006.017-.006.006-.006.006-.017.006-.023 0-.005.005-.005.005-.005h.017c.006 0 .012 0 .012.005.005.012.028.029.05.023.046-.017.006-.056.046-.062.005 0 .017-.006.028 0 .034.006.062.017.073-.006.006-.017.006-.079-.034-.102-.022-.01.034-.152-.073-.22.05.011.215.034.243-.006.05.012.107.046.113.057.006.011.011.023-.006.028-.045.028-.04.04-.062.051h-.005c-.012-.011-.029-.034-.046-.045-.017-.011-.028-.006-.034 0-.022-.006-.056 0-.067.028.01 0 .028-.006.05 0v.011c-.005.006 0 .017.012.023 0 0 .005 0 .005.006 0 0 0 .005-.005.005-.023-.005-.074-.005-.062.023 0 0 0 .011.005.017a.044.044 0 0 0-.011.056c.006-.01.011-.017.034-.028.006.006.011.011.011.017.017.017.04-.023.068-.017.006 0 .006.006 0 .006-.023.011-.05.028-.04.045 0 0 .006.011.006.017a.046.046 0 0 0 .028.056c-.005-.005-.005-.022-.005-.033.011 0 .022 0 .028-.006.05-.023.017-.057.034-.074.017-.017.04.029.079-.005.006-.006.017-.023.006-.04V17.2c.011.01.017.022.04.01-.029-.022.005-.039.016-.056 0-.005.006-.005.006-.005.017.005.034 0 .05-.029-.022.006-.078-.028-.045-.04.051-.016.063-.044.04-.073-.04-.05-.119-.056-.119-.113h.074c.249 0 .407-.067.401-.147-.011-.17-.752.017-.752-.107-.01-.045.034-.073.096-.09m-.542.022a.435.435 0 0 0 .085.034c-.04.006-.029.023-.057.023-.022 0-.034-.034-.028-.057m-.051-.022c-.011.017-.034.033-.05.017-.018-.017 0-.023-.023-.057l.073.04m-.08.17c.007-.012.012-.023.023-.023a.031.031 0 0 0 .029-.017c.005-.017-.012-.023-.023-.034.017-.006.023-.012.017-.023-.011-.006-.023.006-.028 0-.006-.006.005-.017.011-.017a.017.017 0 0 1 .023 0l.068.034c.005.006.01.011.01.017 0 .006 0 .017-.005.023-.005 0-.005-.023-.017-.023-.011 0-.011.006-.005.023-.017-.006-.034-.012-.04 0-.006.01-.006.022.006.033.005.006 0 .017-.006.034s-.023.04-.05.023c-.023-.011-.023-.04-.012-.05" fill-rule="nonzero"/><path d="M12.17 3.55c0-.102-.08-.181-.182-.181a.186.186 0 0 0-.18.18c0 .102.079.181.18.181.102 0 .181-.079.181-.18M12.107 3.07c0-.103-.08-.182-.18-.182-.097 0-.182.08-.182.181 0 .102.08.181.181.181.102 0 .181-.08.181-.18M12.209 2.854c.101 0 .18-.079.18-.18 0-.102-.079-.181-.18-.181a.186.186 0 0 0-.181.18c.005.102.085.181.18.181M12.695 2.82c.102 0 .18-.079.18-.18 0-.102-.078-.181-.18-.181a.186.186 0 0 0-.181.18c0 .102.079.181.18.181M14.747 2.487a.184.184 0 0 0 .254 0 .184.184 0 0 0 0-.254.184.184 0 0 0-.254 0 .174.174 0 0 0 0 .254M14.707 2.103a.174.174 0 0 0 0-.255c-.074-.068-.187-.073-.254 0-.074.068-.068.187 0 .255.067.073.18.073.254 0M14.227 2.023a.184.184 0 0 0 0-.254.174.174 0 0 0-.255 0 .184.184 0 0 0 0 .254c.068.074.181.074.255 0M13.82 2.329a.184.184 0 0 0 0-.255.184.184 0 0 0-.255 0 .192.192 0 0 0 0 .26.18.18 0 0 0 .255-.005M12.667 2.08l.146.317.181-.22c.006 0 .017.005.023.005.017.107.023.288.023.395 0 .13.101.232.231.232a.233.233 0 0 0 .232-.232.23.23 0 0 0-.124-.203 2.065 2.065 0 0 1-.255-.237.043.043 0 0 0 .012-.029l.305.029-.119-.323-.226.193C13.09 2 13.09 2 13.085 2l-.017-.334-.317.12.21.248a.043.043 0 0 0-.012.028l-.282.017zM14.758 2.645c.068.108.096.164.102.249a.493.493 0 0 1-.187-.17l.04.419a.425.425 0 0 1 .147-.153c-.017.271-.125.39-.22.407-.114.023-.204-.05-.216-.141-.022-.125.085-.198.193-.09.016-.255-.187-.25-.272-.142.108-.243.062-.407-.152-.537-.136.232-.08.379.096.554-.17-.085-.317.056-.17.243.034-.164.175-.124.204.006.028.113-.08.254-.26.305-.26.079-.345-.085-.407-.226.056-.034.192-.023.339.068l-.125-.413a.413.413 0 0 1-.248.249c-.006-.12.079-.362.079-.362l-.498.203s.232.108.311.204a.42.42 0 0 1-.35-.006l.198.385c.04-.17.124-.272.192-.289.05.147.107.322-.13.447-.17.085-.34.056-.401-.04-.068-.113.01-.237.147-.147-.023-.237-.232-.237-.289-.056 0-.243-.062-.39-.316-.458-.062.243.017.39.265.492-.14-.017-.288.124-.096.294 0-.153.13-.176.198-.068.051.073.04.186-.056.248-.08.051-.238.051-.441-.14.062-.023.124-.018.215.005l-.266-.328a.49.49 0 0 1-.017.254c-.057-.068-.074-.124-.102-.248l-.203.18c.192.12.412.3.684.673a9.528 9.528 0 0 1 1.102-.548 8.89 8.89 0 0 1 1.175-.379c-.067-.452-.033-.74.023-.96l-.288.016z"/><path d="M18.726 14.147c.073-.192-.283-.412-.323-.69-.04-.276-.005-.542-.322-.91-.31-.36-1.396-1.52-1.718-1.887.085-.006.277-.05.475.136.119.107.35.327.565.542a5.788 5.788 0 0 1 1.147-1.842 3.56 3.56 0 0 1 .198-.215c-.186.056-.475.102-.638.215-.012-.317.01-.577-.204-.78.085-.441.011-.984-.983-1.64.508.125.808.583 1.198.232-.35-.011-.356-.774-1.622-1.407.48-.011.859.769 1.418.328-.525-.062-.7-.995-1.65-1.289.328.04.667.198.95-.187-.328.08-.52-.226-.877-.254.13-.412.102-.661-.04-.966-.248.017-.502.09-.683.243-.028-.226-.266-.238-.475-.22.011.095.057.237-.05.26-.17.033-.735.186-1.17.35-.436.17-.933.48-1.08.576-.09.062-.164-.079-.22-.147-.153.13-.306.3-.193.47-.243.022-.509.084-.735.265 0 .283.232.554.583.707-.588.582-.057 1.119-.571 1.627.723.029.599-.983.966-1.124-.04.712-.435.836-.435 1.6 0 .406.243.853.028 1.124.605-.164.447-1.51.825-1.91.068.231.029.452-.05.683-.215.628.022 1.481-.306 1.758.616-.062.69-1.051 1.204-1.418-.435.893-.887 2.797-1.537 3.753-1.057 1.424-1.679 3.16-2.645 3.16-.43 0-.752-.26-.752-.803 0-1.617 2.775-2.73 2.775-4.454 0-.77-.627-1.063-1.017-1.063-.266 0-.582.13-.848.35a.963.963 0 0 0-.328-.073c-.983 0-.718 1.763-1.577 1.746.34.193.921-.18 1.266-.672-.141 1.142-1.792.842-1.662 2.216.232-1.074 2.855-.922 2.855-2.55 0-.186-.096-.339-.226-.457.198-.125.384-.176.554-.176.316 0 .599.238.599.696 0 1.447-2.758 2.662-2.758 4.437 0 .3.09.548.231.746-.192.084-.395.045-.56-.153-.016.458.64.746 1.046.514.09.034.187.051.289.057-.125.339-.549.44-.77.424.68.531 1.855-.17 1.793-.769.537-.435.876-1.176 1.266-1.662-.023.113-.045.226-.062.334-.396.718-.763 1.362-.87 2.312-.086.79-.487 1.509-1.047 1.509-.124 0-.322-.159-.418-.08-.175.148-.011.306-.011.453 0 .226-.435.452-.435 1.147 0 .317.18.69.113.899.18-.09.412-.39.514-.775.192.922-.396.882.028 1.696.051-.271.323-.384.486-.271.164.113.09.192-.033.316-.125.125-.238.735.322.696-.108-.068-.113-.232.164-.289.384-.079.497.096.904.096.254 0 .322-.333.52-.333.203 0 .203.158.13.271.322-.085.384-.26.384-.44 0-.182-.147-.295-.034-.368.113-.068.486.006.34.31.192-.033.293-.174.293-.406 0-.238-.27-.373-.52-.328-.045-.147-.26-.226-.463-.226-.452 0-.384.356-.695.356-.498 0-.978-.644-.978-1.735 0-.582.627-.73 1.074-.921.44-.193 1.22-.673 1.69-1.453.367-.61.379-1.283.328-2.074.627.356.7.876.7 1.249 0 .486-.248.684-.452.774-.17.08-.226.045-.243.147-.022.124.062.198.136.232.226.113.18.333.243.565.062.237.271.605.622.87.034-.147.028-.378.005-.678.48.238.096 1.204 1.03 1.204-.17-.096-.125-.35-.03-.39.103-.04.227.062.408.317.18.254.13.231.57.231.442 0 .244-.152.475-.152.232 0 .215.271.09.469.397-.119.515-.418.38-.724.344-.186.53.08.582.266.345-.345 0-.757-.272-.786.012-.124-.107-.26-.254-.271-.141-.011-.283-.017-.44-.011-.165.011-.255.243-.442.243-.582 0-1.74-1.063-1.74-1.52 0-.458 1.107-.741 1.107-1.448 0-.932-.915-1.249-1.684-1.842.277-.305 1.074-.379 1.532-.158.05-.26.214-.193.277-.64.164.39-.006.73.158.9.13-.187.458-.164.44-.65.103.305-.124.774.103.977.04-.248.186-.3.282-.3.096 0 .175.069.175.216 0 .373-.457.197-.457.616 0 .175.22.237.22.35 0 .113-.18.288-.407.141.073.164.22.306.413.306.203 0 .418-.164.503-.373.107.265.022.565-.164.599.203.101.684.005.627-.61.271.044.413.225.254.553.22-.056.424-.164.424-.401.006-.175-.192-.226-.101-.464M13.48 5.76c-.254.022-.248-.22-.695-.328.317-.062.718-.22 1.063-.356.073.294-.045.655-.368.684m1.792 1.904c-.328.142-.576-.147-.639-.339-.062-.198-.113-.356-.04-.43.142-.135.187-.248.103-.418-.096-.197-.311-.101-.537-.05.107-.193.113-.328-.029-.311-.175.017-.175.3-.27.265-.097-.034-.04-.192-.04-.282 0-.119.079-.159.197-.215l.944-.356c.125-.045.204-.068.289.017.062.062.209.141.163.232-.045.09-.243-.108-.384 0-.113.09-.017.18.192.243-.203.118-.418.197-.35.412.062.181.164.226.362.232.107 0 .18.153.27.339.091.175.114.509-.23.661m.056-2.628c-.255.198-.588.017-.74-.243.344-.147.751-.305 1.022-.475-.248.39-.079.56-.282.718M36.411 18.607c0 .43.35.78.78.78.43 0 .78-.35.78-.78 0-.43-.35-.78-.78-.78-.43 0-.78.35-.78.78m.198 0c0-.322.26-.582.582-.582.322 0 .577.26.577.582a.58.58 0 0 1-.577.582.589.589 0 0 1-.582-.582M33.5 19.325a.45.45 0 0 0-.192.288.465.465 0 0 0 .119.39c.096.107.237.18.39.21.158.027.31.005.44-.063a.455.455 0 0 0 .25-.328c.05-.271-.181-.542-.51-.599a.68.68 0 0 0-.497.102m.35.695c-.22-.04-.378-.203-.35-.367a.278.278 0 0 1 .113-.164c.09-.062.215-.085.345-.062.204.033.35.18.35.333v.04c-.028.158-.231.26-.457.22M29.205 8.382c-.243.187-.317.503-.158.707.158.198.48.209.723.022a.612.612 0 0 0 .237-.395.401.401 0 0 0-.356-.464.574.574 0 0 0-.446.13m-.045.452c0-.101.062-.22.163-.3a.422.422 0 0 1 .294-.09.213.213 0 0 1 .147.08c.04.056.046.118.04.158a.424.424 0 0 1-.164.265c-.153.12-.356.125-.44.012-.03-.029-.04-.074-.04-.125M32.585 18.03a.67.67 0 0 0-.192.47v.017a.65.65 0 0 0 .175.457c.085.09.198.142.316.142a.468.468 0 0 0 .323-.13.681.681 0 0 0 .192-.47.712.712 0 0 0-.13-.423.472.472 0 0 0-.356-.198.453.453 0 0 0-.328.135zm.3.882a.255.255 0 0 1-.176-.079.472.472 0 0 1-.119-.333c0-.13.051-.25.13-.328.04-.04.097-.08.181-.08.164.006.294.187.294.419 0 .13-.05.249-.13.328-.04.034-.102.079-.18.073zM28.764 11.728a.45.45 0 0 0-.26.226c-.119.249.028.571.333.713.164.079.35.096.503.04a.417.417 0 0 0 .26-.227.428.428 0 0 0 .012-.345.682.682 0 0 0-.345-.367.655.655 0 0 0-.503-.04m.158.758c-.203-.096-.31-.3-.237-.447a.237.237 0 0 1 .147-.124.454.454 0 0 1 .35.034c.119.056.21.152.243.254a.267.267 0 0 1-.005.198.252.252 0 0 1-.147.124.517.517 0 0 1-.35-.04" fill-rule="nonzero"/><path d="M36.965 10.926c.255.695.758.95 1.142.768-.86-.101-.164-1.571-1.272-1.571a.838.838 0 0 0-.175.017c-.187-.198-.407-.283-.723-.283-.47 0-1.278.453-1.278 1.385 0 2.012 2.334 2.193 2.334 3.968 0 .52-.39.842-.83.842-.39 0-.707-.44-1.04-1.13-.159-.328-.498-.78-.86-1.25a.674.674 0 0 0 .345.125.43.43 0 0 0 .322-.119.43.43 0 0 0 .136-.316v-.017a.664.664 0 0 0-.192-.452.646.646 0 0 0-.458-.215.452.452 0 0 0-.328.119.43.43 0 0 0-.135.316v.017c0 .068.01.136.04.203-.504-.655-.973-1.3-.973-1.656 0-.31.215-.587.48-.915.012.005.09.05.09.05l.069-.079c.096-.101.288-.316.695-.751l.023-.029.096-.101-.25-.204c.069-.152.125-.316.17-.491.08.322.244.53.475.463-.152-.333.153-.78-.045-1.6.192.317.464.48.667.424-.52-.457.153-1.096-.52-2.091.22.074.367.028.463-.08-.616-.084-.333-.87-1.413-1.152.272-.045.43-.204.385-.345-.283.204-.537-.384-1.47-.367-.056-.35-.378-.718-.746-.893.068.271.006.514-.068.717l-3.046-2.99c-.09-.084-.136-.101-.164-.073-.023.028-.023.085.034.147l2.617 3.284c-.198.068-.39.152-.594.226a.343.343 0 0 0-.226.34c-.486.242-.91.542-1.125.734-.164.147-.288.18-.147.514.057.125-.113.435.266.21.249-.148.814-.458.899-.266.045.101-.232.237-.424.31-.192.074-.396.221-.368.294.029.074.181-.005.193.074.011.09.073.164.147.164.073 0 .175-.158.237-.108.062.051-.028.413-.09.504.293-.04.486-.323.497-.537.006-.22.068-.277.113-.306.045-.028.102.238.04.396.158-.034.316-.237.3-.622.078-.062.157-.113.22-.113.101 0 .293.277.576.277.52 0 .808-.418.837-.616.022-.158.01-.316-.074-.43.187.147.243.385.243.56 0 .735-1.3 1.08-1.831 1.588a.268.268 0 0 0-.057.057l-.61-.232-.04.136a65.03 65.03 0 0 1-.31 1.006l-.034.102.056.034c-.362.48-.65 1.017-.718 1.57a4.33 4.33 0 0 0-.446-.406.75.75 0 0 0 .034-.17.591.591 0 0 0-.142-.43.403.403 0 0 0-.582-.033c-.017.017-.04.034-.05.056-.023-.017-.046-.034-.063-.05-.203-.159-.452-.34-.599-.504-.062-.073-.13-.107-.266-.107-.05 0-.18-.006-.271-.006-.09 0-.141.068-.243.159-.05.04-.187.152-.345.271l.22.237.12.136c.045-.034.078-.062.107-.085.062-.05.147-.062.226-.062.079 0 .186.057.265.175.057.085.549.73.956 1.182-.046.017-.09.028-.13.045-.176.073-.571.056-.746.045-.176-.017-.21-.057-.328.13a1.895 1.895 0 0 1-.164.226c-.057.074-.102.153.022.362.181.305.628 1.108.775 1.464.147.361.322.418.605.537.282.118.768.395.825.458l.017-.277c-.085-.085-.356-.187-.458-.22-.102-.04-.13-.08-.006-.08.125 0 .464.124.707.22-.074-.27-.328-.565-.486-.734-.204-.057-.413-.057-.498.005.012.057-.034.13-.118.13-.08 0-.136-.068-.108-.141.029-.08.147-.107.125-.266-.029-.152-.22-.18-.345-.192-.175-.249-.373-.622-.464-.769-.09-.146-.034-.231.029-.282.147-.124.457.062 1.08.102.214.01.485.028.768.04.079.717.367 1.4 1.373 1.65.492.118.995.48 1.165.95-2.001-.035-2.318.745-2.318 1.48 0 .837.707.791.707 1.419 0 .548-1.685.774-2.193.848-.43.062-.678.158-.882.367-.203.21-.418.407-.791.78 0 0 .158.034.322.028l.283-.367c.084-.125.14-.226.197-.215.057.011.017.102-.045.237l-.249.368c.99.068 1.052-.3 1.052-.452 0-.153-.243-.255-.102-.345.141-.096.26-.028.373.102.113.135.153.243.424.14 0 0 2.153-.892 2.425-1.01.243-.114.175-.216.028-.34-.158-.13-.187-.35-.187-.57 0-.65.39-.854 1.091-.843-.017.113-.022.22-.022.317 0 1.017 1.537 2.012 1.95 2.012.186 0 .435-.136.452.474.011.453.102.77.023 1.29-.08.52-.232.598-.543.819-.311.22-.61.91-.74 1.051.14.09.288.102.4-.232.097-.277.204-.474.329-.542-.12.305-.21.751-.266.887.39.068 1.029-.288 1.029-.565 0-.277-.22-.254-.22-.441 0-.085.101-.175.22-.175.158 0 .277.124.288.186.175-.096.283-.265.277-.667a207.03 207.03 0 0 1-.017-.491.442.442 0 0 0 .39.26.714.714 0 0 0 .43-.113.669.669 0 0 0 .293-.413.411.411 0 0 0-.062-.34.457.457 0 0 0-.288-.191.67.67 0 0 0-.497.107.723.723 0 0 0-.289.379c-.034-.554-.073-1.074-.056-1.283.022-.311.034-.447-.074-.498-.101-.045-.214.125-.367.125s-.605-.419-.605-.854c0-.44.475-1.006.452-1.605-.005-.187.108-.288.187-.113.09.203.226.48.43.706-.125.758.706 1.493 1.39.95-.34.05-.571-.249-.724-.554a.953.953 0 0 0 .187.017c.034 0 .068 0 .102-.006.243.3 1 .272 1.198-.463-.136.153-.407.271-.605.243.288-.22.435-.588.435-.978 0-1.916-2.328-2.142-2.328-3.889 0-.644.565-1.062.96-1.062a.6.6 0 0 1 .362.113c-.152.152-.232.384-.22.667.062 1.379 2.312 1.311 2.34 1.972.271-1-1.413-.69-1.47-2.034zm-5.991-5.29c.107-.21 0-.526.379-.526.186 0 .356.186.582.26-.368.033-.701.113-.961.265zm-2.057 4.221a.417.417 0 0 1-.12.277c-.033.029-.084.063-.146.057-.13-.006-.232-.158-.232-.334V9.83a.391.391 0 0 1 .119-.271.21.21 0 0 1 .152-.057.225.225 0 0 1 .142.074c.056.068.09.175.085.282zm6.646 9.683a.493.493 0 0 1 .21-.289.462.462 0 0 1 .344-.079c.051.011.12.04.164.108.046.067.04.14.034.186a.493.493 0 0 1-.209.288c-.186.125-.418.113-.509-.028a.232.232 0 0 1-.034-.186zm-1.396-6.421a.24.24 0 0 1 .074-.176.223.223 0 0 1 .18-.062.506.506 0 0 1 .317.153c.09.096.142.215.136.328 0 .05-.017.118-.074.175-.056.056-.13.062-.18.062a.462.462 0 0 1-.317-.158.445.445 0 0 1-.136-.322zm-3.82-4.336l.316-1.011.356.141c-.102.04-.232.136-.339.243.08.034.226.04.322-.023l-.141.357c-.034-.057-.13-.187-.232-.21-.073.289.108.396.238.458.214.108.356.13.418.029.068-.125-.074-.294-.255-.215-.017-.187.085-.283.21-.283.096 0 .175.09.203.21-.011-.3.124-.538.401-.622.102.293.017.491-.203.7.113-.045.249-.04.3.04.067.102.045.243-.12.333-.039-.192-.26-.209-.327-.084-.062.124.034.243.232.35.231.13.418.051.537-.147-.08-.028-.21-.011-.334.068l.238-.44c.01.067.05.174.146.26.034-.097.085-.272.012-.43l.508.293c-.17.017-.293.147-.361.227a.444.444 0 0 0 .3 0l-.266.423c.005-.147-.046-.265-.108-.322-.113.21-.085.407.142.543.197.119.344.141.423.022.074-.118-.05-.305-.237-.243-.006-.186.102-.277.226-.27.102.005.17.118.187.242.073-.294.203-.469.508-.525.063.282-.073.52-.339.66.119-.039.232-.016.283.069.062.107.028.243-.141.322-.023-.198-.243-.232-.317-.113-.056.102.028.215.232.345.124.079.305.18.514-.023-.068-.08-.232-.096-.294-.096l.238-.3a.358.358 0 0 0 .14.289c.035-.147.057-.306.04-.413l.3.237s-.48.515-.718.78l-3.238-1.87zM33.5 16.73c-.13.181-.344.243-.491.147-.142-.101-.153-.327-.023-.508.124-.181.345-.243.486-.147.141.101.158.328.028.508zm.922-1.452c-.13.18-.345.243-.486.141-.142-.102-.153-.328-.023-.509.13-.18.345-.243.492-.147.13.108.141.334.017.515z" fill-rule="nonzero"/></g></g></svg>