<?xml version="1.0" encoding="UTF-8"?>
<svg width="589px" height="59px" viewBox="0 0 589 59" version="1.1" xmlns="http://www.w3.org/2000/svg" xmlns:xlink="http://www.w3.org/1999/xlink">
    <!-- Generator: Sketch 43.2 (39069) - http://www.bohemiancoding.com/sketch -->
    <title>Group 4</title>
    <desc>Created with Sketch.</desc>
    <defs>
        <path d="M27,32 C35.836556,32 43,24.836556 43,16 C43,7.163444 35.836556,0 27,0 C18.163444,0 11,7.163444 11,16 C11,24.836556 18.163444,32 27,32 Z" id="path-1"></path>
        <path d="M205.333333,32 C214.169889,32 221.333333,24.836556 221.333333,16 C221.333333,7.163444 214.169889,0 205.333333,0 C196.496777,0 189.333333,7.163444 189.333333,16 C189.333333,24.836556 196.496777,32 205.333333,32 Z" id="path-2"></path>
        <path d="M383.666667,32 C392.503223,32 399.666667,24.836556 399.666667,16 C399.666667,7.163444 392.503223,-2.84217094e-14 383.666667,-2.84217094e-14 C374.830111,-2.84217094e-14 367.666667,7.163444 367.666667,16 C367.666667,24.836556 374.830111,32 383.666667,32 Z" id="path-3"></path>
        <path d="M562,32 C570.836556,32 578,24.836556 578,16 C578,7.163444 570.836556,-2.48689958e-14 562,-2.48689958e-14 C553.163444,-2.48689958e-14 546,7.163444 546,16 C546,24.836556 553.163444,32 562,32 Z" id="path-4"></path>
    </defs>
    <g id="Page-1" stroke="none" stroke-width="1" fill="none" fill-rule="evenodd">
        <g id="Desktop-HD" transform="translate(-127.000000, -72.000000)">
            <g id="Group-4" transform="translate(127.000000, 72.000000)">
                <g id="Group-12">
                    <path d="M464.175913,-71.0469847 L464.175913,102.955887" id="Path-2-Copy" stroke="#006435" stroke-width="6" transform="translate(465.000000, 15.500000) rotate(-90.000000) translate(-465.000000, -15.500000) "></path>
                    <path d="M290.175913,-71.0469847 L290.175913,102.955887" id="Path-2" stroke="#006435" stroke-width="6" transform="translate(291.000000, 15.500000) rotate(-90.000000) translate(-291.000000, -15.500000) "></path>
                    <path d="M120.175913,-67.0000234 L120.175913,98.9558868" id="Path-2" stroke="#006435" stroke-width="6" transform="translate(121.000000, 15.500000) rotate(-90.000000) translate(-121.000000, -15.500000) "></path>
                    <g id="Oval">
                        <use fill="#006435" fill-rule="evenodd" xlink:href="#path-1"></use>
                        <path stroke="#006435" stroke-width="6" d="M27,29 C19.8202983,29 14,23.1797017 14,16 C14,8.82029825 19.8202983,3 27,3 C34.1797017,3 40,8.82029825 40,16 C40,23.1797017 34.1797017,29 27,29 Z"></path>
                    </g>
                    <path d="M7.73828125,52.921875 L3.58984375,52.921875 L2.95703125,55 L0.55078125,55 L4.21484375,43.796875 L7.19140625,43.796875 L10.9101562,55 L8.37890625,55 L7.73828125,52.921875 Z M4.19921875,50.921875 L7.12890625,50.921875 L5.67578125,46.1875 L5.64453125,46.1875 L4.19921875,50.921875 Z M14.1367188,57.640625 L11.9804688,57.640625 L11.9804688,46.6328125 L14.1367188,46.6328125 L14.1367188,47.3515625 C14.3710949,47.1067696 14.6601545,46.8984384 15.0039062,46.7265625 C15.347658,46.5546866 15.7643205,46.46875 16.2539062,46.46875 C16.8059923,46.46875 17.3072894,46.579426 17.7578125,46.8007812 C18.2083356,47.0221365 18.5950505,47.326821 18.9179688,47.7148438 C19.240887,48.1028665 19.4908845,48.5624973 19.6679688,49.09375 C19.845053,49.6250027 19.9335938,50.2005177 19.9335938,50.8203125 C19.9335938,51.4401073 19.8424488,52.0156223 19.6601562,52.546875 C19.4778637,53.0781277 19.2226579,53.5364564 18.8945312,53.921875 C18.5664046,54.3072936 18.1731794,54.6093739 17.7148438,54.828125 C17.2565081,55.0468761 16.7513048,55.15625 16.1992188,55.15625 C15.9544259,55.15625 15.7317718,55.1341148 15.53125,55.0898438 C15.3307282,55.0455727 15.1471362,54.9843754 14.9804688,54.90625 C14.8138013,54.8281246 14.660157,54.7356776 14.5195312,54.6289062 C14.3789055,54.5221349 14.2513027,54.4062506 14.1367188,54.28125 L14.1367188,57.640625 Z M14.0742187,51.59375 C14.0742187,51.8177095 14.1145829,52.0247386 14.1953125,52.2148438 C14.2760421,52.4049489 14.3919263,52.5703118 14.5429687,52.7109375 C14.6940112,52.8515632 14.8749989,52.9609371 15.0859375,53.0390625 C15.2968761,53.1171879 15.5351549,53.15625 15.8007812,53.15625 C16.1080745,53.15625 16.3802071,53.100261 16.6171875,52.9882812 C16.8541679,52.8763015 17.0533846,52.718751 17.2148437,52.515625 C17.3763029,52.312499 17.4986975,52.071616 17.5820312,51.7929688 C17.665365,51.5143215 17.7070312,51.208335 17.7070312,50.875 L17.7070312,50.7734375 C17.7070312,50.4401025 17.665365,50.1328139 17.5820312,49.8515625 C17.4986975,49.5703111 17.3763029,49.3268239 17.2148437,49.1210938 C17.0533846,48.9153636 16.8541679,48.7552089 16.6171875,48.640625 C16.3802071,48.5260411 16.1080745,48.46875 15.8007812,48.46875 C15.5351549,48.46875 15.2968761,48.5078121 15.0859375,48.5859375 C14.8749989,48.6640629 14.6940112,48.7734368 14.5429687,48.9140625 C14.3919263,49.0546882 14.2760421,49.2213532 14.1953125,49.4140625 C14.1145829,49.6067718 14.0742187,49.815103 14.0742187,50.0390625 L14.0742187,51.59375 Z M23.5273438,57.640625 L21.3710938,57.640625 L21.3710938,46.6328125 L23.5273438,46.6328125 L23.5273438,47.3515625 C23.7617199,47.1067696 24.0507795,46.8984384 24.3945312,46.7265625 C24.738283,46.5546866 25.1549455,46.46875 25.6445312,46.46875 C26.1966173,46.46875 26.6979144,46.579426 27.1484375,46.8007812 C27.5989606,47.0221365 27.9856755,47.326821 28.3085938,47.7148438 C28.631512,48.1028665 28.8815095,48.5624973 29.0585938,49.09375 C29.235678,49.6250027 29.3242188,50.2005177 29.3242188,50.8203125 C29.3242188,51.4401073 29.2330738,52.0156223 29.0507812,52.546875 C28.8684887,53.0781277 28.6132829,53.5364564 28.2851562,53.921875 C27.9570296,54.3072936 27.5638044,54.6093739 27.1054688,54.828125 C26.6471331,55.0468761 26.1419298,55.15625 25.5898438,55.15625 C25.3450509,55.15625 25.1223968,55.1341148 24.921875,55.0898438 C24.7213532,55.0455727 24.5377612,54.9843754 24.3710938,54.90625 C24.2044263,54.8281246 24.050782,54.7356776 23.9101562,54.6289062 C23.7695305,54.5221349 23.6419277,54.4062506 23.5273438,54.28125 L23.5273438,57.640625 Z M23.4648438,51.59375 C23.4648438,51.8177095 23.5052079,52.0247386 23.5859375,52.2148438 C23.6666671,52.4049489 23.7825513,52.5703118 23.9335938,52.7109375 C24.0846362,52.8515632 24.2656239,52.9609371 24.4765625,53.0390625 C24.6875011,53.1171879 24.9257799,53.15625 25.1914062,53.15625 C25.4986995,53.15625 25.7708321,53.100261 26.0078125,52.9882812 C26.2447929,52.8763015 26.4440096,52.718751 26.6054688,52.515625 C26.7669279,52.312499 26.8893225,52.071616 26.9726562,51.7929688 C27.05599,51.5143215 27.0976562,51.208335 27.0976562,50.875 L27.0976562,50.7734375 C27.0976562,50.4401025 27.05599,50.1328139 26.9726562,49.8515625 C26.8893225,49.5703111 26.7669279,49.3268239 26.6054688,49.1210938 C26.4440096,48.9153636 26.2447929,48.7552089 26.0078125,48.640625 C25.7708321,48.5260411 25.4986995,48.46875 25.1914062,48.46875 C24.9257799,48.46875 24.6875011,48.5078121 24.4765625,48.5859375 C24.2656239,48.6640629 24.0846362,48.7734368 23.9335938,48.9140625 C23.7825513,49.0546882 23.6666671,49.2213532 23.5859375,49.4140625 C23.5052079,49.6067718 23.4648438,49.815103 23.4648438,50.0390625 L23.4648438,51.59375 Z M32.5664062,51.5625 C32.6028648,51.8125012 32.6822911,52.0416656 32.8046875,52.25 C32.9270839,52.4583344 33.0820303,52.636718 33.2695312,52.7851562 C33.4570322,52.9335945 33.6731759,53.0494787 33.9179687,53.1328125 C34.1627616,53.2161463 34.4231757,53.2578125 34.6992187,53.2578125 C35.0169287,53.2578125 35.3606752,53.1966152 35.7304687,53.0742188 C36.1002623,52.9518223 36.4388005,52.7734387 36.7460937,52.5390625 L37.7851562,54.0546875 C37.3945293,54.3828141 36.9153674,54.6484365 36.3476562,54.8515625 C35.7799451,55.0546885 35.1757845,55.15625 34.5351562,55.15625 C33.9570284,55.15625 33.412763,55.0572927 32.9023437,54.859375 C32.3919245,54.6614573 31.9453144,54.3750019 31.5625,54 C31.1796856,53.6249981 30.8776053,53.1692735 30.65625,52.6328125 C30.4348947,52.0963515 30.3242187,51.4921909 30.3242187,50.8203125 C30.3242187,50.2057261 30.421874,49.6328152 30.6171875,49.1015625 C30.812501,48.5703098 31.0859357,48.109377 31.4375,47.71875 C31.7890643,47.328123 32.209633,47.0221365 32.6992187,46.8007812 C33.1888045,46.579426 33.7304658,46.46875 34.3242187,46.46875 C34.8763048,46.46875 35.3893205,46.5690094 35.8632812,46.7695312 C36.337242,46.9700531 36.7486962,47.2513003 37.0976562,47.6132812 C37.4466163,47.9752622 37.7200511,48.4088516 37.9179687,48.9140625 C38.1158864,49.4192734 38.2148437,49.9765595 38.2148437,50.5859375 L38.2148437,51.5625 L32.5664062,51.5625 Z M34.3164062,48.34375 C33.8528623,48.34375 33.4609391,48.4986964 33.140625,48.8085938 C32.8203109,49.1184911 32.6341148,49.4921853 32.5820312,49.9296875 L35.9570312,49.9296875 C35.9466145,49.486977 35.7851578,49.1119807 35.4726562,48.8046875 C35.1601547,48.4973943 34.7747419,48.34375 34.3164062,48.34375 Z M42.2929688,51.6015625 C42.0273424,51.6432294 41.8138029,51.7356764 41.6523438,51.8789062 C41.4908846,52.0221361 41.4101562,52.2161446 41.4101562,52.4609375 C41.4101562,52.7317722 41.5091136,52.9648428 41.7070312,53.1601562 C41.9049489,53.3554697 42.1966127,53.453125 42.5820312,53.453125 C42.9882833,53.453125 43.3085926,53.3359387 43.5429688,53.1015625 C43.7773449,52.8671863 43.8945312,52.5572936 43.8945312,52.171875 L43.8945312,51.328125 L42.2929688,51.6015625 Z M44.2460938,54.2109375 C44.1575516,54.3098963 44.0494798,54.415364 43.921875,54.5273438 C43.7942702,54.6393235 43.64323,54.740885 43.46875,54.8320312 C43.29427,54.9231775 43.0898449,54.9999997 42.8554688,55.0625 C42.6210926,55.1250003 42.3580744,55.15625 42.0664062,55.15625 C41.6497375,55.15625 41.2656268,55.0898444 40.9140625,54.9570312 C40.5624982,54.8242181 40.2539076,54.638022 39.9882812,54.3984375 C39.7226549,54.158853 39.5143237,53.881512 39.3632812,53.5664062 C39.2122388,53.2513005 39.1367188,52.908856 39.1367188,52.5390625 C39.1367188,51.8671841 39.34505,51.3177105 39.7617188,50.890625 C40.1783875,50.4635395 40.7539026,50.195313 41.4882812,50.0859375 L43.8945312,49.734375 L43.8945312,49.578125 C43.8945312,49.2031231 43.7799491,48.9062511 43.5507812,48.6875 C43.3216134,48.4687489 42.9492213,48.359375 42.4335938,48.359375 C42.220051,48.359375 42.0039073,48.3841143 41.7851562,48.4335938 C41.5664052,48.4830732 41.3567718,48.5390622 41.15625,48.6015625 C40.9557282,48.6640628 40.7695321,48.7356767 40.5976562,48.8164062 C40.4257804,48.8971358 40.2747402,48.9687497 40.1445312,49.03125 L39.3007812,47.3828125 C39.7799503,47.1171862 40.3124971,46.8984384 40.8984375,46.7265625 C41.4843779,46.5546866 42.0924448,46.46875 42.7226562,46.46875 C43.1080748,46.46875 43.4973939,46.5091142 43.890625,46.5898438 C44.2838561,46.6705733 44.6406234,46.8177073 44.9609375,47.03125 C45.2812516,47.2447927 45.5429677,47.5351544 45.7460938,47.9023438 C45.9492198,48.2695331 46.0507812,48.7369763 46.0507812,49.3046875 L46.0507812,52.7421875 C46.0507812,52.9869804 46.1145827,53.1679682 46.2421875,53.2851562 C46.3697923,53.4023443 46.5455718,53.5104162 46.7695312,53.609375 L45.7929688,55.15625 C45.3971334,55.1145831 45.0794283,55.0117196 44.8398438,54.8476562 C44.6002592,54.6835929 44.4023445,54.4713555 44.2460938,54.2109375 Z M47.8164062,43.796875 L49.9726562,43.796875 L49.9726562,52.7265625 C49.9726562,52.9036467 50.023437,53.039062 50.125,53.1328125 C50.226563,53.226563 50.3893218,53.2734375 50.6132812,53.2734375 C50.7174484,53.2734375 50.8072913,53.2669271 50.8828125,53.2539062 C50.9583337,53.2408854 51.055989,53.2213543 51.1757812,53.1953125 L51.3476562,55.03125 C51.2018222,55.0520834 51.0455738,55.0729166 50.8789062,55.09375 C50.7382805,55.1093751 50.5755218,55.1236979 50.390625,55.1367188 C50.2057282,55.1497396 50.0143239,55.15625 49.8164062,55.15625 C49.509113,55.15625 49.2330741,55.1171879 48.9882812,55.0390625 C48.7434884,54.9609371 48.533855,54.8450529 48.359375,54.6914062 C48.184895,54.5377596 48.0507817,54.3463553 47.9570312,54.1171875 C47.8632808,53.8880197 47.8164062,53.6223973 47.8164062,53.3203125 L47.8164062,43.796875 Z" id="Appeal" fill="#0B0C0C"></path>
                    <g id="Oval">
                        <use fill="#FFFFFF" fill-rule="evenodd" xlink:href="#path-2"></use>
                        <path stroke="#006435" stroke-width="6" d="M205.333333,29 C198.153632,29 192.333333,23.1797017 192.333333,16 C192.333333,8.82029825 198.153632,3 205.333333,3 C212.513035,3 218.333333,8.82029825 218.333333,16 C218.333333,23.1797017 212.513035,29 205.333333,29 Z"></path>
                    </g>
                    <path d="M164.757812,50.3984375 C164.757812,51.2369834 164.653647,52.0012986 164.445312,52.6914062 C164.236978,53.3815139 163.919273,53.9713517 163.492188,54.4609375 C163.065102,54.9505233 162.529951,55.3294257 161.886719,55.5976562 C161.243486,55.8658868 160.486984,56 159.617188,56 L156.023438,56 L156.023438,44.796875 L159.617188,44.796875 C160.486984,44.796875 161.243486,44.9309882 161.886719,45.1992188 C162.529951,45.4674493 163.065102,45.8463517 163.492188,46.3359375 C163.919273,46.8255233 164.236978,47.4153611 164.445312,48.1054688 C164.653647,48.7955764 164.757812,49.5598916 164.757812,50.3984375 Z M163.28125,50.1796875 C163.28125,49.5963512 163.208334,49.0494817 163.0625,48.5390625 C162.916666,48.0286433 162.694012,47.5846373 162.394531,47.2070312 C162.095051,46.8294252 161.712242,46.5312511 161.246094,46.3125 C160.779946,46.0937489 160.226566,45.984375 159.585938,45.984375 L157.398438,45.984375 L157.398438,54.8125 L159.585938,54.8125 C160.226566,54.8125 160.779946,54.7044282 161.246094,54.4882812 C161.712242,54.2721343 162.095051,53.9752623 162.394531,53.5976562 C162.694012,53.2200502 162.916666,52.7760442 163.0625,52.265625 C163.208334,51.7552058 163.28125,51.2083363 163.28125,50.625 L163.28125,50.1796875 Z M175.8125,54.015625 L175.890625,54.015625 L177.796875,44.796875 L179.203125,44.796875 L176.710938,56 L175.078125,56 L172.695312,46.8515625 L170.320312,56 L168.679688,56 L166.195312,44.796875 L167.585938,44.796875 L169.523438,54.015625 L169.617188,54.015625 L172.054688,44.796875 L173.382812,44.796875 L175.8125,54.015625 Z M181.429688,44.796875 L185.359375,44.796875 C185.885419,44.796875 186.361977,44.8841137 186.789062,45.0585938 C187.216148,45.2330738 187.58203,45.4752589 187.886719,45.7851562 C188.191408,46.0950536 188.42578,46.4661437 188.589844,46.8984375 C188.753907,47.3307313 188.835938,47.8046849 188.835938,48.3203125 C188.835938,48.8411484 188.746095,49.3164041 188.566406,49.7460938 C188.386718,50.1757834 188.135418,50.5442693 187.8125,50.8515625 C187.489582,51.1588557 187.105471,51.3971346 186.660156,51.5664062 C186.214842,51.7356779 185.729169,51.8203125 185.203125,51.8203125 L182.804688,51.8203125 L182.804688,56 L181.429688,56 L181.429688,44.796875 Z M187.375,48.2890625 C187.375,47.9609359 187.322917,47.6562514 187.21875,47.375 C187.114583,47.0937486 186.963543,46.8502614 186.765625,46.6445312 C186.567707,46.4388011 186.326824,46.2773443 186.042969,46.1601562 C185.759113,46.0429682 185.437502,45.984375 185.078125,45.984375 L182.804688,45.984375 L182.804688,50.640625 L185.078125,50.640625 C185.437502,50.640625 185.759113,50.5833339 186.042969,50.46875 C186.326824,50.3541661 186.567707,50.1966156 186.765625,49.9960938 C186.963543,49.7955719 187.114583,49.555991 187.21875,49.2773438 C187.322917,48.9986965 187.375,48.6953141 187.375,48.3671875 L187.375,48.2890625 Z M197.460938,49.1875 L197.25,49.1875 C196.911457,49.1875 196.588543,49.2265621 196.28125,49.3046875 C195.973957,49.3828129 195.703126,49.5234365 195.46875,49.7265625 C195.234374,49.9296885 195.046876,50.2070295 194.90625,50.5585938 C194.765624,50.910158 194.695312,51.3593723 194.695312,51.90625 L194.695312,56 L193.382812,56 L193.382812,48.015625 L194.695312,48.015625 L194.695312,49.28125 C194.794271,49.0468738 194.927082,48.8411467 195.09375,48.6640625 C195.260418,48.4869783 195.449218,48.3398443 195.660156,48.2226562 C195.871095,48.1054682 196.097655,48.0182295 196.339844,47.9609375 C196.582032,47.9036455 196.828124,47.875 197.078125,47.875 L197.460938,47.875 L197.460938,49.1875 Z M199.695312,52.4140625 C199.721354,52.7890644 199.796874,53.1354151 199.921875,53.453125 C200.046876,53.7708349 200.217447,54.0455718 200.433594,54.2773438 C200.649741,54.5091157 200.904946,54.6888014 201.199219,54.8164062 C201.493491,54.9440111 201.820311,55.0078125 202.179688,55.0078125 C202.622398,55.0078125 203.011717,54.9335945 203.347656,54.7851562 C203.683595,54.636718 203.992186,54.450522 204.273438,54.2265625 L204.945312,55.171875 C204.585936,55.4583348 204.170575,55.6940095 203.699219,55.8789062 C203.227862,56.063803 202.700524,56.15625 202.117188,56.15625 C201.53906,56.15625 201.015627,56.0533864 200.546875,55.8476562 C200.078123,55.6419261 199.678387,55.3554706 199.347656,54.9882812 C199.016925,54.6210919 198.763022,54.1835963 198.585938,53.6757812 C198.408853,53.1679662 198.320312,52.6145863 198.320312,52.015625 C198.320312,51.406247 198.407551,50.8476588 198.582031,50.3398438 C198.756511,49.8320287 199.002603,49.3945331 199.320312,49.0273438 C199.638022,48.6601544 200.018227,48.3736989 200.460938,48.1679688 C200.903648,47.9622386 201.395831,47.859375 201.9375,47.859375 C202.463544,47.859375 202.937498,47.9622386 203.359375,48.1679688 C203.781252,48.3736989 204.140624,48.6601544 204.4375,49.0273438 C204.734376,49.3945331 204.962239,49.8320287 205.121094,50.3398438 C205.279949,50.8476588 205.359375,51.4010387 205.359375,52 L205.359375,52.4140625 L199.695312,52.4140625 Z M201.890625,49.0078125 C201.55729,49.0078125 201.260418,49.072916 201,49.203125 C200.739582,49.333334 200.516928,49.5078114 200.332031,49.7265625 C200.147134,49.9453136 200.001303,50.1966132 199.894531,50.4804688 C199.78776,50.7643243 199.726563,51.0572902 199.710938,51.359375 L203.9375,51.359375 C203.927083,51.0520818 203.873698,50.7565118 203.777344,50.4726562 C203.680989,50.1888007 203.545574,49.9388032 203.371094,49.7226562 C203.196614,49.5065093 202.985678,49.333334 202.738281,49.203125 C202.490884,49.072916 202.208335,49.0078125 201.890625,49.0078125 Z M212.53125,53.7890625 C212.53125,54.1640644 212.44922,54.4986964 212.285156,54.7929688 C212.121093,55.0872411 211.903647,55.3359365 211.632812,55.5390625 C211.361978,55.7421885 211.050783,55.8958328 210.699219,56 C210.347654,56.1041672 209.986981,56.15625 209.617188,56.15625 C209.033851,56.15625 208.472659,56.0559906 207.933594,55.8554688 C207.394529,55.6549469 206.916669,55.3671894 206.5,54.9921875 L207.21875,54.0625 C207.343751,54.1718755 207.48828,54.2864577 207.652344,54.40625 C207.816407,54.5260423 207.999999,54.6367182 208.203125,54.7382812 C208.406251,54.8398443 208.624999,54.9231768 208.859375,54.9882812 C209.093751,55.0533857 209.341145,55.0859375 209.601562,55.0859375 C209.815105,55.0859375 210.01953,55.058594 210.214844,55.0039062 C210.410157,54.9492185 210.580728,54.8684901 210.726562,54.7617188 C210.872397,54.6549474 210.988281,54.5273445 211.074219,54.3789062 C211.160157,54.230468 211.203125,54.0625009 211.203125,53.875 C211.203125,53.6666656 211.157553,53.4921882 211.066406,53.3515625 C210.97526,53.2109368 210.851563,53.0911463 210.695312,52.9921875 C210.539062,52.8932287 210.356772,52.807292 210.148438,52.734375 C209.940103,52.661458 209.721355,52.588542 209.492188,52.515625 L208.992188,52.3515625 C208.710936,52.257812 208.440105,52.1510423 208.179688,52.03125 C207.91927,51.9114577 207.688803,51.7643238 207.488281,51.5898438 C207.287759,51.4153637 207.128907,51.2083345 207.011719,50.96875 C206.894531,50.7291655 206.835938,50.44271 206.835938,50.109375 C206.835938,49.8385403 206.893229,49.5690118 207.007812,49.3007812 C207.122396,49.0325507 207.298176,48.7916677 207.535156,48.578125 C207.772137,48.3645823 208.072915,48.1914069 208.4375,48.0585938 C208.802085,47.9257806 209.231768,47.859375 209.726562,47.859375 C210.27344,47.859375 210.779946,47.9505199 211.246094,48.1328125 C211.712242,48.3151051 212.106769,48.5416653 212.429688,48.8125 L211.742188,49.7578125 C211.627604,49.648437 211.492188,49.5442713 211.335938,49.4453125 C211.179687,49.3463537 211.013022,49.259115 210.835938,49.1835938 C210.658853,49.1080725 210.473959,49.0468752 210.28125,49 C210.088541,48.9531248 209.898438,48.9296875 209.710938,48.9296875 C209.424478,48.9296875 209.182293,48.9622393 208.984375,49.0273438 C208.786457,49.0924482 208.627605,49.1770828 208.507812,49.28125 C208.38802,49.3854172 208.300782,49.5026035 208.246094,49.6328125 C208.191406,49.7630215 208.164062,49.8906244 208.164062,50.015625 C208.164062,50.1979176 208.203125,50.3502598 208.28125,50.4726562 C208.359375,50.5950527 208.462239,50.7005204 208.589844,50.7890625 C208.717449,50.8776046 208.86328,50.9531247 209.027344,51.015625 C209.191407,51.0781253 209.361978,51.1406247 209.539062,51.203125 L210.195312,51.421875 C210.507814,51.5260422 210.79427,51.6367182 211.054688,51.7539062 C211.315105,51.8710943 211.54427,52.0052076 211.742188,52.15625 C211.992189,52.3541677 212.186197,52.583332 212.324219,52.84375 C212.46224,53.104168 212.53125,53.419269 212.53125,53.7890625 Z M215.859375,48.015625 L215.859375,48.9296875 C216.093751,48.6015609 216.411456,48.3411468 216.8125,48.1484375 C217.213544,47.9557282 217.674477,47.859375 218.195312,47.859375 C218.71094,47.859375 219.177081,47.9622386 219.59375,48.1679688 C220.010419,48.3736989 220.367186,48.6614565 220.664062,49.03125 C220.960939,49.4010435 221.188801,49.8398412 221.347656,50.3476562 C221.506511,50.8554713 221.585938,51.4114553 221.585938,52.015625 C221.585938,52.6197947 221.506511,53.1744766 221.347656,53.6796875 C221.188801,54.1848984 220.960939,54.6210919 220.664062,54.9882812 C220.367186,55.3554706 220.010419,55.6419261 219.59375,55.8476562 C219.177081,56.0533864 218.71094,56.15625 218.195312,56.15625 C217.674477,56.15625 217.213544,56.0598968 216.8125,55.8671875 C216.411456,55.6744782 216.093751,55.4140641 215.859375,55.0859375 L215.859375,58.4296875 L214.546875,58.4296875 L214.546875,48.015625 L215.859375,48.015625 Z M220.226562,51.96875 C220.226562,51.5520813 220.177084,51.1640643 220.078125,50.8046875 C219.979166,50.4453107 219.833334,50.1341159 219.640625,49.8710938 C219.447916,49.6080716 219.209637,49.4010424 218.925781,49.25 C218.641926,49.0989576 218.31771,49.0234375 217.953125,49.0234375 C217.604165,49.0234375 217.298178,49.0833327 217.035156,49.203125 C216.772134,49.3229173 216.552084,49.4869781 216.375,49.6953125 C216.197916,49.9036469 216.063803,50.1497382 215.972656,50.4335938 C215.88151,50.7174493 215.835938,51.02604 215.835938,51.359375 L215.835938,52.65625 C215.835938,52.989585 215.88151,53.2981757 215.972656,53.5820312 C216.063803,53.8658868 216.197916,54.1119781 216.375,54.3203125 C216.552084,54.5286469 216.772134,54.6927077 217.035156,54.8125 C217.298178,54.9322923 217.604165,54.9921875 217.953125,54.9921875 C218.31771,54.9921875 218.641926,54.9166674 218.925781,54.765625 C219.209637,54.6145826 219.447916,54.4075534 219.640625,54.1445312 C219.833334,53.8815091 219.979166,53.5703143 220.078125,53.2109375 C220.177084,52.8515607 220.226562,52.4635437 220.226562,52.046875 L220.226562,51.96875 Z M226.71875,47.859375 C227.270836,47.859375 227.773435,47.9622386 228.226562,48.1679688 C228.67969,48.3736989 229.066405,48.6601544 229.386719,49.0273438 C229.707033,49.3945331 229.955728,49.8320287 230.132812,50.3398438 C230.309897,50.8476588 230.398438,51.406247 230.398438,52.015625 C230.398438,52.6145863 230.309897,53.1679662 230.132812,53.6757812 C229.955728,54.1835963 229.707033,54.6210919 229.386719,54.9882812 C229.066405,55.3554706 228.67969,55.6419261 228.226562,55.8476562 C227.773435,56.0533864 227.270836,56.15625 226.71875,56.15625 C226.166664,56.15625 225.665367,56.0533864 225.214844,55.8476562 C224.764321,55.6419261 224.377606,55.3554706 224.054688,54.9882812 C223.731769,54.6210919 223.481772,54.1835963 223.304688,53.6757812 C223.127603,53.1679662 223.039062,52.6145863 223.039062,52.015625 C223.039062,51.406247 223.127603,50.8476588 223.304688,50.3398438 C223.481772,49.8320287 223.731769,49.3945331 224.054688,49.0273438 C224.377606,48.6601544 224.764321,48.3736989 225.214844,48.1679688 C225.665367,47.9622386 226.166664,47.859375 226.71875,47.859375 Z M226.71875,55.0078125 C227.09896,55.0078125 227.433592,54.9283862 227.722656,54.7695312 C228.01172,54.6106763 228.253905,54.3958347 228.449219,54.125 C228.644532,53.8541653 228.791666,53.5403664 228.890625,53.1835938 C228.989584,52.8268211 229.039062,52.453127 229.039062,52.0625 L229.039062,51.96875 C229.039062,51.5677063 228.989584,51.1875018 228.890625,50.828125 C228.791666,50.4687482 228.644532,50.1549493 228.449219,49.8867188 C228.253905,49.6184882 228.01172,49.4049487 227.722656,49.2460938 C227.433592,49.0872388 227.09896,49.0078125 226.71875,49.0078125 C226.33854,49.0078125 226.003908,49.0872388 225.714844,49.2460938 C225.42578,49.4049487 225.183595,49.6184882 224.988281,49.8867188 C224.792968,50.1549493 224.645834,50.4687482 224.546875,50.828125 C224.447916,51.1875018 224.398438,51.5677063 224.398438,51.96875 L224.398438,52.0625 C224.398438,52.453127 224.447916,52.8268211 224.546875,53.1835938 C224.645834,53.5403664 224.792968,53.8541653 224.988281,54.125 C225.183595,54.3958347 225.42578,54.6106763 225.714844,54.7695312 C226.003908,54.9283862 226.33854,55.0078125 226.71875,55.0078125 Z M232.320312,48.015625 L233.632812,48.015625 L233.632812,48.9296875 C233.903647,48.559894 234.238279,48.2890634 234.636719,48.1171875 C235.035158,47.9453116 235.479164,47.859375 235.96875,47.859375 C236.411461,47.859375 236.799477,47.9322909 237.132812,48.078125 C237.466148,48.2239591 237.744791,48.4218738 237.96875,48.671875 C238.192709,48.9218762 238.360677,49.2109359 238.472656,49.5390625 C238.584636,49.8671891 238.640625,50.2135398 238.640625,50.578125 L238.640625,56 L237.328125,56 L237.328125,50.9921875 C237.328125,50.6432274 237.285157,50.3450533 237.199219,50.0976562 C237.113281,49.8502592 236.996094,49.6497404 236.847656,49.4960938 C236.699218,49.3424471 236.524741,49.2304691 236.324219,49.1601562 C236.123697,49.0898434 235.908855,49.0546875 235.679688,49.0546875 C235.429686,49.0546875 235.183595,49.10026 234.941406,49.1914062 C234.699218,49.2825525 234.48047,49.4192699 234.285156,49.6015625 C234.089843,49.7838551 233.932292,50.0130195 233.8125,50.2890625 C233.692708,50.5651055 233.632812,50.8906231 233.632812,51.265625 L233.632812,56 L232.320312,56 L232.320312,48.015625 Z M246.320312,53.7890625 C246.320312,54.1640644 246.238282,54.4986964 246.074219,54.7929688 C245.910155,55.0872411 245.69271,55.3359365 245.421875,55.5390625 C245.15104,55.7421885 244.839846,55.8958328 244.488281,56 C244.136717,56.1041672 243.776044,56.15625 243.40625,56.15625 C242.822914,56.15625 242.261721,56.0559906 241.722656,55.8554688 C241.183591,55.6549469 240.705731,55.3671894 240.289062,54.9921875 L241.007812,54.0625 C241.132813,54.1718755 241.277343,54.2864577 241.441406,54.40625 C241.60547,54.5260423 241.789061,54.6367182 241.992188,54.7382812 C242.195314,54.8398443 242.414061,54.9231768 242.648438,54.9882812 C242.882814,55.0533857 243.130207,55.0859375 243.390625,55.0859375 C243.604168,55.0859375 243.808593,55.058594 244.003906,55.0039062 C244.19922,54.9492185 244.369791,54.8684901 244.515625,54.7617188 C244.661459,54.6549474 244.777343,54.5273445 244.863281,54.3789062 C244.949219,54.230468 244.992188,54.0625009 244.992188,53.875 C244.992188,53.6666656 244.946615,53.4921882 244.855469,53.3515625 C244.764322,53.2109368 244.640626,53.0911463 244.484375,52.9921875 C244.328124,52.8932287 244.145834,52.807292 243.9375,52.734375 C243.729166,52.661458 243.510418,52.588542 243.28125,52.515625 L242.78125,52.3515625 C242.499999,52.257812 242.229168,52.1510423 241.96875,52.03125 C241.708332,51.9114577 241.477866,51.7643238 241.277344,51.5898438 C241.076822,51.4153637 240.917969,51.2083345 240.800781,50.96875 C240.683593,50.7291655 240.625,50.44271 240.625,50.109375 C240.625,49.8385403 240.682291,49.5690118 240.796875,49.3007812 C240.911459,49.0325507 241.087238,48.7916677 241.324219,48.578125 C241.561199,48.3645823 241.861977,48.1914069 242.226562,48.0585938 C242.591148,47.9257806 243.020831,47.859375 243.515625,47.859375 C244.062503,47.859375 244.569008,47.9505199 245.035156,48.1328125 C245.501304,48.3151051 245.895832,48.5416653 246.21875,48.8125 L245.53125,49.7578125 C245.416666,49.648437 245.281251,49.5442713 245.125,49.4453125 C244.968749,49.3463537 244.802084,49.259115 244.625,49.1835938 C244.447916,49.1080725 244.263022,49.0468752 244.070312,49 C243.877603,48.9531248 243.687501,48.9296875 243.5,48.9296875 C243.21354,48.9296875 242.971355,48.9622393 242.773438,49.0273438 C242.57552,49.0924482 242.416667,49.1770828 242.296875,49.28125 C242.177083,49.3854172 242.089844,49.5026035 242.035156,49.6328125 C241.980468,49.7630215 241.953125,49.8906244 241.953125,50.015625 C241.953125,50.1979176 241.992187,50.3502598 242.070312,50.4726562 C242.148438,50.5950527 242.251301,50.7005204 242.378906,50.7890625 C242.506511,50.8776046 242.652343,50.9531247 242.816406,51.015625 C242.98047,51.0781253 243.151041,51.1406247 243.328125,51.203125 L243.984375,51.421875 C244.296877,51.5260422 244.583332,51.6367182 244.84375,51.7539062 C245.104168,51.8710943 245.333332,52.0052076 245.53125,52.15625 C245.781251,52.3541677 245.97526,52.583332 246.113281,52.84375 C246.251303,53.104168 246.320312,53.419269 246.320312,53.7890625 Z M249.226562,52.4140625 C249.252604,52.7890644 249.328124,53.1354151 249.453125,53.453125 C249.578126,53.7708349 249.748697,54.0455718 249.964844,54.2773438 C250.180991,54.5091157 250.436196,54.6888014 250.730469,54.8164062 C251.024741,54.9440111 251.351561,55.0078125 251.710938,55.0078125 C252.153648,55.0078125 252.542967,54.9335945 252.878906,54.7851562 C253.214845,54.636718 253.523436,54.450522 253.804688,54.2265625 L254.476562,55.171875 C254.117186,55.4583348 253.701825,55.6940095 253.230469,55.8789062 C252.759112,56.063803 252.231774,56.15625 251.648438,56.15625 C251.07031,56.15625 250.546877,56.0533864 250.078125,55.8476562 C249.609373,55.6419261 249.209637,55.3554706 248.878906,54.9882812 C248.548175,54.6210919 248.294272,54.1835963 248.117188,53.6757812 C247.940103,53.1679662 247.851562,52.6145863 247.851562,52.015625 C247.851562,51.406247 247.938801,50.8476588 248.113281,50.3398438 C248.287761,49.8320287 248.533853,49.3945331 248.851562,49.0273438 C249.169272,48.6601544 249.549477,48.3736989 249.992188,48.1679688 C250.434898,47.9622386 250.927081,47.859375 251.46875,47.859375 C251.994794,47.859375 252.468748,47.9622386 252.890625,48.1679688 C253.312502,48.3736989 253.671874,48.6601544 253.96875,49.0273438 C254.265626,49.3945331 254.493489,49.8320287 254.652344,50.3398438 C254.811199,50.8476588 254.890625,51.4010387 254.890625,52 L254.890625,52.4140625 L249.226562,52.4140625 Z M251.421875,49.0078125 C251.08854,49.0078125 250.791668,49.072916 250.53125,49.203125 C250.270832,49.333334 250.048178,49.5078114 249.863281,49.7265625 C249.678384,49.9453136 249.532553,50.1966132 249.425781,50.4804688 C249.31901,50.7643243 249.257813,51.0572902 249.242188,51.359375 L253.46875,51.359375 C253.458333,51.0520818 253.404948,50.7565118 253.308594,50.4726562 C253.212239,50.1888007 253.076824,49.9388032 252.902344,49.7226562 C252.727864,49.5065093 252.516928,49.333334 252.269531,49.203125 C252.022134,49.072916 251.739585,49.0078125 251.421875,49.0078125 Z" id="DWP-response" fill="#231F1F"></path>
                    <g id="Oval" transform="translate(383.666667, 16.000000) rotate(-90.000000) translate(-383.666667, -16.000000) ">
                        <use fill="#FFFFFF" fill-rule="evenodd" xlink:href="#path-3"></use>
                        <path stroke="#006435" stroke-width="6" d="M383.666667,29 C376.486965,29 370.666667,23.1797017 370.666667,16 C370.666667,8.82029825 376.486965,3 383.666667,3 C390.846368,3 396.666667,8.82029825 396.666667,16 C396.666667,23.1797017 390.846368,29 383.666667,29 Z"></path>
                    </g>
                    <path d="M337.898438,49.8515625 L332,49.8515625 L332,55 L330.625,55 L330.625,43.796875 L332,43.796875 L332,48.6640625 L337.898438,48.6640625 L337.898438,43.796875 L339.28125,43.796875 L339.28125,55 L337.898438,55 L337.898438,49.8515625 Z M342.726562,51.4140625 C342.752604,51.7890644 342.828124,52.1354151 342.953125,52.453125 C343.078126,52.7708349 343.248697,53.0455718 343.464844,53.2773438 C343.680991,53.5091157 343.936196,53.6888014 344.230469,53.8164062 C344.524741,53.9440111 344.851561,54.0078125 345.210938,54.0078125 C345.653648,54.0078125 346.042967,53.9335945 346.378906,53.7851562 C346.714845,53.636718 347.023436,53.450522 347.304688,53.2265625 L347.976562,54.171875 C347.617186,54.4583348 347.201825,54.6940095 346.730469,54.8789062 C346.259112,55.063803 345.731774,55.15625 345.148438,55.15625 C344.57031,55.15625 344.046877,55.0533864 343.578125,54.8476562 C343.109373,54.6419261 342.709637,54.3554706 342.378906,53.9882812 C342.048175,53.6210919 341.794272,53.1835963 341.617188,52.6757812 C341.440103,52.1679662 341.351562,51.6145863 341.351562,51.015625 C341.351562,50.406247 341.438801,49.8476588 341.613281,49.3398438 C341.787761,48.8320287 342.033853,48.3945331 342.351562,48.0273438 C342.669272,47.6601544 343.049477,47.3736989 343.492188,47.1679688 C343.934898,46.9622386 344.427081,46.859375 344.96875,46.859375 C345.494794,46.859375 345.968748,46.9622386 346.390625,47.1679688 C346.812502,47.3736989 347.171874,47.6601544 347.46875,48.0273438 C347.765626,48.3945331 347.993489,48.8320287 348.152344,49.3398438 C348.311199,49.8476588 348.390625,50.4010387 348.390625,51 L348.390625,51.4140625 L342.726562,51.4140625 Z M344.921875,48.0078125 C344.58854,48.0078125 344.291668,48.072916 344.03125,48.203125 C343.770832,48.333334 343.548178,48.5078114 343.363281,48.7265625 C343.178384,48.9453136 343.032553,49.1966132 342.925781,49.4804688 C342.81901,49.7643243 342.757813,50.0572902 342.742188,50.359375 L346.96875,50.359375 C346.958333,50.0520818 346.904948,49.7565118 346.808594,49.4726562 C346.712239,49.1888007 346.576824,48.9388032 346.402344,48.7226562 C346.227864,48.5065093 346.016928,48.333334 345.769531,48.203125 C345.522134,48.072916 345.239585,48.0078125 344.921875,48.0078125 Z M354.757812,54.203125 C354.523436,54.4739597 354.207033,54.7005199 353.808594,54.8828125 C353.410154,55.0651051 352.942711,55.15625 352.40625,55.15625 C352.010415,55.15625 351.643231,55.100261 351.304688,54.9882812 C350.966144,54.8763015 350.671876,54.7161469 350.421875,54.5078125 C350.171874,54.2994781 349.976563,54.0468765 349.835938,53.75 C349.695312,53.4531235 349.625,53.1171894 349.625,52.7421875 C349.625,52.4296859 349.675781,52.1445325 349.777344,51.8867188 C349.878907,51.628905 350.022134,51.4036468 350.207031,51.2109375 C350.391928,51.0182282 350.614582,50.8606777 350.875,50.7382812 C351.135418,50.6158848 351.427082,50.5312502 351.75,50.484375 L354.570312,50.1015625 L354.570312,49.59375 C354.570312,49.2916652 354.523438,49.0377614 354.429688,48.8320312 C354.335937,48.6263011 354.209636,48.4635423 354.050781,48.34375 C353.891926,48.2239577 353.704428,48.1380211 353.488281,48.0859375 C353.272134,48.0338539 353.039064,48.0078125 352.789062,48.0078125 C352.341144,48.0078125 351.923179,48.0703119 351.535156,48.1953125 C351.147133,48.3203131 350.796877,48.466145 350.484375,48.6328125 L349.992188,47.59375 C350.450523,47.333332 350.930987,47.1458339 351.433594,47.03125 C351.9362,46.9166661 352.432289,46.859375 352.921875,46.859375 C353.895838,46.859375 354.63281,47.0794249 355.132812,47.5195312 C355.632815,47.9596376 355.882812,48.6015583 355.882812,49.4453125 L355.882812,53.125 C355.882812,53.3906263 355.934895,53.6132804 356.039062,53.7929688 C356.14323,53.9726571 356.309895,54.1145828 356.539062,54.21875 L355.796875,55.15625 C355.546874,55.0937497 355.332032,54.9830737 355.152344,54.8242188 C354.972655,54.6653638 354.846355,54.4739595 354.773438,54.25 L354.757812,54.203125 Z M352.421875,51.4453125 C352.203124,51.4765627 352.003907,51.520833 351.824219,51.578125 C351.64453,51.635417 351.492188,51.7122391 351.367188,51.8085938 C351.242187,51.9049484 351.144532,52.0234368 351.074219,52.1640625 C351.003906,52.3046882 350.96875,52.4765615 350.96875,52.6796875 C350.96875,52.9140637 351.01302,53.1223949 351.101562,53.3046875 C351.190105,53.4869801 351.309895,53.6406244 351.460938,53.765625 C351.61198,53.8906256 351.787759,53.9856768 351.988281,54.0507812 C352.188803,54.1158857 352.398436,54.1484375 352.617188,54.1484375 C352.86198,54.1484375 353.101561,54.1145837 353.335938,54.046875 C353.570314,53.9791663 353.778645,53.8815111 353.960938,53.7539062 C354.14323,53.6263014 354.290364,53.4713551 354.402344,53.2890625 C354.514323,53.1067699 354.570312,52.8984387 354.570312,52.6640625 L354.570312,51.125 L352.421875,51.4453125 Z M362.34375,48.1875 L362.132812,48.1875 C361.794269,48.1875 361.471356,48.2265621 361.164062,48.3046875 C360.856769,48.3828129 360.585939,48.5234365 360.351562,48.7265625 C360.117186,48.9296885 359.929688,49.2070295 359.789062,49.5585938 C359.648437,49.910158 359.578125,50.3593723 359.578125,50.90625 L359.578125,55 L358.265625,55 L358.265625,47.015625 L359.578125,47.015625 L359.578125,48.28125 C359.677084,48.0468738 359.809895,47.8411467 359.976562,47.6640625 C360.14323,47.4869783 360.33203,47.3398443 360.542969,47.2226562 C360.753907,47.1054682 360.980468,47.0182295 361.222656,46.9609375 C361.464845,46.9036455 361.710936,46.875 361.960938,46.875 L362.34375,46.875 L362.34375,48.1875 Z M365.195312,55 L363.882812,55 L363.882812,47.015625 L365.195312,47.015625 L365.195312,55 Z M363.640625,44.7109375 C363.640625,44.5859369 363.665364,44.4687505 363.714844,44.359375 C363.764323,44.2499995 363.829427,44.1536463 363.910156,44.0703125 C363.990886,43.9869787 364.087239,43.9205732 364.199219,43.8710938 C364.311198,43.8216143 364.429687,43.796875 364.554688,43.796875 C364.679688,43.796875 364.796874,43.8216143 364.90625,43.8710938 C365.015626,43.9205732 365.110677,43.9869787 365.191406,44.0703125 C365.272136,44.1536463 365.337239,44.2499995 365.386719,44.359375 C365.436198,44.4687505 365.460938,44.5859369 365.460938,44.7109375 C365.460938,44.8359381 365.436198,44.9544265 365.386719,45.0664062 C365.337239,45.178386 365.272136,45.2747392 365.191406,45.3554688 C365.110677,45.4361983 365.015626,45.5013018 364.90625,45.5507812 C364.796874,45.6002607 364.679688,45.625 364.554688,45.625 C364.429687,45.625 364.311198,45.6002607 364.199219,45.5507812 C364.087239,45.5013018 363.990886,45.4361983 363.910156,45.3554688 C363.829427,45.2747392 363.764323,45.178386 363.714844,45.0664062 C363.665364,44.9544265 363.640625,44.8359381 363.640625,44.7109375 Z M367.59375,47.015625 L368.90625,47.015625 L368.90625,47.9296875 C369.177085,47.559894 369.511717,47.2890634 369.910156,47.1171875 C370.308596,46.9453116 370.752602,46.859375 371.242188,46.859375 C371.684898,46.859375 372.072915,46.9322909 372.40625,47.078125 C372.739585,47.2239591 373.018228,47.4218738 373.242188,47.671875 C373.466147,47.9218762 373.634114,48.2109359 373.746094,48.5390625 C373.858073,48.8671891 373.914062,49.2135398 373.914062,49.578125 L373.914062,55 L372.601562,55 L372.601562,49.9921875 C372.601562,49.6432274 372.558594,49.3450533 372.472656,49.0976562 C372.386718,48.8502592 372.269532,48.6497404 372.121094,48.4960938 C371.972656,48.3424471 371.798178,48.2304691 371.597656,48.1601562 C371.397134,48.0898434 371.182293,48.0546875 370.953125,48.0546875 C370.703124,48.0546875 370.457032,48.10026 370.214844,48.1914062 C369.972655,48.2825525 369.753907,48.4192699 369.558594,48.6015625 C369.36328,48.7838551 369.20573,49.0130195 369.085938,49.2890625 C368.966145,49.5651055 368.90625,49.8906231 368.90625,50.265625 L368.90625,55 L367.59375,55 L367.59375,47.015625 Z M375.796875,50.5703125 C375.796875,50.0442682 375.872395,49.5546898 376.023438,49.1015625 C376.17448,48.6484352 376.390624,48.2565121 376.671875,47.9257812 C376.953126,47.5950504 377.292967,47.3346364 377.691406,47.1445312 C378.089846,46.9544261 378.536456,46.859375 379.03125,46.859375 C379.468752,46.859375 379.885415,46.9440096 380.28125,47.1132812 C380.677085,47.2825529 381.013019,47.5546856 381.289062,47.9296875 L381.289062,47.015625 L382.601562,47.015625 L382.601562,55 C382.601562,55.4947941 382.501303,55.9101546 382.300781,56.2460938 C382.100259,56.5820329 381.838543,56.8515615 381.515625,57.0546875 C381.192707,57.2578135 380.826825,57.4036454 380.417969,57.4921875 C380.009113,57.5807296 379.593752,57.625 379.171875,57.625 C378.937499,57.625 378.694012,57.6119793 378.441406,57.5859375 C378.188801,57.5598957 377.934897,57.5208336 377.679688,57.46875 C377.424478,57.4166664 377.173178,57.3502608 376.925781,57.2695312 C376.678384,57.1888017 376.442709,57.0937505 376.21875,56.984375 L376.695312,55.8828125 C376.851563,55.9557295 377.015624,56.0273434 377.1875,56.0976562 C377.359376,56.1679691 377.545572,56.2317705 377.746094,56.2890625 C377.946616,56.3463545 378.161457,56.393229 378.390625,56.4296875 C378.619793,56.466146 378.86979,56.484375 379.140625,56.484375 C379.47396,56.484375 379.774738,56.4505212 380.042969,56.3828125 C380.311199,56.3151038 380.536457,56.2096361 380.71875,56.0664062 C380.901043,55.9231764 381.041666,55.7408865 381.140625,55.5195312 C381.239584,55.298176 381.289062,55.0338557 381.289062,54.7265625 L381.289062,53.2109375 C381.013019,53.5859394 380.677085,53.8580721 380.28125,54.0273438 C379.885415,54.1966154 379.468752,54.28125 379.03125,54.28125 C378.536456,54.28125 378.089846,54.1861989 377.691406,53.9960938 C377.292967,53.8059886 376.953126,53.5442725 376.671875,53.2109375 C376.390624,52.8776025 376.17448,52.4856793 376.023438,52.0351562 C375.872395,51.5846332 375.796875,51.0963568 375.796875,50.5703125 Z M381.320312,50.5390625 C381.320312,50.1796857 381.28125,49.8476578 381.203125,49.5429688 C381.125,49.2382797 381.002605,48.9726574 380.835938,48.7460938 C380.66927,48.5195301 380.457033,48.3424486 380.199219,48.2148438 C379.941405,48.0872389 379.632814,48.0234375 379.273438,48.0234375 C378.908852,48.0234375 378.593751,48.088541 378.328125,48.21875 C378.062499,48.348959 377.842449,48.5273426 377.667969,48.7539062 C377.493489,48.9804699 377.364584,49.2473943 377.28125,49.5546875 C377.197916,49.8619807 377.15625,50.1901024 377.15625,50.5390625 L377.15625,50.6015625 C377.15625,50.9505226 377.197916,51.2773422 377.28125,51.5820312 C377.364584,51.8867203 377.493489,52.1523426 377.667969,52.3789062 C377.842449,52.6054699 378.062499,52.7838535 378.328125,52.9140625 C378.593751,53.0442715 378.908852,53.109375 379.273438,53.109375 C379.632814,53.109375 379.941405,53.0455736 380.199219,52.9179688 C380.457033,52.7903639 380.66927,52.6145845 380.835938,52.390625 C381.002605,52.1666655 381.125,51.9010432 381.203125,51.59375 C381.28125,51.2864568 381.320312,50.9557309 381.320312,50.6015625 L381.320312,50.5390625 Z M389.515625,55 L388.203125,55 L388.203125,43.796875 L389.515625,43.796875 L389.515625,47.9296875 C389.750001,47.6015609 390.067706,47.3411468 390.46875,47.1484375 C390.869794,46.9557282 391.330727,46.859375 391.851562,46.859375 C392.36719,46.859375 392.833331,46.9622386 393.25,47.1679688 C393.666669,47.3736989 394.023436,47.6614565 394.320312,48.03125 C394.617189,48.4010435 394.845051,48.8398412 395.003906,49.3476562 C395.162761,49.8554713 395.242188,50.4114553 395.242188,51.015625 C395.242188,51.6197947 395.162761,52.1744766 395.003906,52.6796875 C394.845051,53.1848984 394.617189,53.6210919 394.320312,53.9882812 C394.023436,54.3554706 393.666669,54.6419261 393.25,54.8476562 C392.833331,55.0533864 392.36719,55.15625 391.851562,55.15625 C391.330727,55.15625 390.869794,55.0598968 390.46875,54.8671875 C390.067706,54.6744782 389.750001,54.4140641 389.515625,54.0859375 L389.515625,55 Z M393.882812,50.96875 C393.882812,50.5520813 393.833334,50.1640643 393.734375,49.8046875 C393.635416,49.4453107 393.489584,49.1341159 393.296875,48.8710938 C393.104166,48.6080716 392.865887,48.4010424 392.582031,48.25 C392.298176,48.0989576 391.97396,48.0234375 391.609375,48.0234375 C391.260415,48.0234375 390.954428,48.0833327 390.691406,48.203125 C390.428384,48.3229173 390.208334,48.4869781 390.03125,48.6953125 C389.854166,48.9036469 389.720053,49.1497382 389.628906,49.4335938 C389.53776,49.7174493 389.492188,50.02604 389.492188,50.359375 L389.492188,51.65625 C389.492188,51.989585 389.53776,52.2981757 389.628906,52.5820312 C389.720053,52.8658868 389.854166,53.1119781 390.03125,53.3203125 C390.208334,53.5286469 390.428384,53.6927077 390.691406,53.8125 C390.954428,53.9322923 391.260415,53.9921875 391.609375,53.9921875 C391.97396,53.9921875 392.298176,53.9166674 392.582031,53.765625 C392.865887,53.6145826 393.104166,53.4075534 393.296875,53.1445312 C393.489584,52.8815091 393.635416,52.5703143 393.734375,52.2109375 C393.833334,51.8515607 393.882812,51.4635437 393.882812,51.046875 L393.882812,50.96875 Z M400.375,46.859375 C400.927086,46.859375 401.429685,46.9622386 401.882812,47.1679688 C402.33594,47.3736989 402.722655,47.6601544 403.042969,48.0273438 C403.363283,48.3945331 403.611978,48.8320287 403.789062,49.3398438 C403.966147,49.8476588 404.054688,50.406247 404.054688,51.015625 C404.054688,51.6145863 403.966147,52.1679662 403.789062,52.6757812 C403.611978,53.1835963 403.363283,53.6210919 403.042969,53.9882812 C402.722655,54.3554706 402.33594,54.6419261 401.882812,54.8476562 C401.429685,55.0533864 400.927086,55.15625 400.375,55.15625 C399.822914,55.15625 399.321617,55.0533864 398.871094,54.8476562 C398.420571,54.6419261 398.033856,54.3554706 397.710938,53.9882812 C397.388019,53.6210919 397.138022,53.1835963 396.960938,52.6757812 C396.783853,52.1679662 396.695312,51.6145863 396.695312,51.015625 C396.695312,50.406247 396.783853,49.8476588 396.960938,49.3398438 C397.138022,48.8320287 397.388019,48.3945331 397.710938,48.0273438 C398.033856,47.6601544 398.420571,47.3736989 398.871094,47.1679688 C399.321617,46.9622386 399.822914,46.859375 400.375,46.859375 Z M400.375,54.0078125 C400.75521,54.0078125 401.089842,53.9283862 401.378906,53.7695312 C401.66797,53.6106763 401.910155,53.3958347 402.105469,53.125 C402.300782,52.8541653 402.447916,52.5403664 402.546875,52.1835938 C402.645834,51.8268211 402.695312,51.453127 402.695312,51.0625 L402.695312,50.96875 C402.695312,50.5677063 402.645834,50.1875018 402.546875,49.828125 C402.447916,49.4687482 402.300782,49.1549493 402.105469,48.8867188 C401.910155,48.6184882 401.66797,48.4049487 401.378906,48.2460938 C401.089842,48.0872388 400.75521,48.0078125 400.375,48.0078125 C399.99479,48.0078125 399.660158,48.0872388 399.371094,48.2460938 C399.08203,48.4049487 398.839845,48.6184882 398.644531,48.8867188 C398.449218,49.1549493 398.302084,49.4687482 398.203125,49.828125 C398.104166,50.1875018 398.054688,50.5677063 398.054688,50.96875 L398.054688,51.0625 C398.054688,51.453127 398.104166,51.8268211 398.203125,52.1835938 C398.302084,52.5403664 398.449218,52.8541653 398.644531,53.125 C398.839845,53.3958347 399.08203,53.6106763 399.371094,53.7695312 C399.660158,53.9283862 399.99479,54.0078125 400.375,54.0078125 Z M409.171875,46.859375 C409.723961,46.859375 410.22656,46.9622386 410.679688,47.1679688 C411.132815,47.3736989 411.51953,47.6601544 411.839844,48.0273438 C412.160158,48.3945331 412.408853,48.8320287 412.585938,49.3398438 C412.763022,49.8476588 412.851562,50.406247 412.851562,51.015625 C412.851562,51.6145863 412.763022,52.1679662 412.585938,52.6757812 C412.408853,53.1835963 412.160158,53.6210919 411.839844,53.9882812 C411.51953,54.3554706 411.132815,54.6419261 410.679688,54.8476562 C410.22656,55.0533864 409.723961,55.15625 409.171875,55.15625 C408.619789,55.15625 408.118492,55.0533864 407.667969,54.8476562 C407.217446,54.6419261 406.830731,54.3554706 406.507812,53.9882812 C406.184894,53.6210919 405.934897,53.1835963 405.757812,52.6757812 C405.580728,52.1679662 405.492188,51.6145863 405.492188,51.015625 C405.492188,50.406247 405.580728,49.8476588 405.757812,49.3398438 C405.934897,48.8320287 406.184894,48.3945331 406.507812,48.0273438 C406.830731,47.6601544 407.217446,47.3736989 407.667969,47.1679688 C408.118492,46.9622386 408.619789,46.859375 409.171875,46.859375 Z M409.171875,54.0078125 C409.552085,54.0078125 409.886717,53.9283862 410.175781,53.7695312 C410.464845,53.6106763 410.70703,53.3958347 410.902344,53.125 C411.097657,52.8541653 411.244791,52.5403664 411.34375,52.1835938 C411.442709,51.8268211 411.492188,51.453127 411.492188,51.0625 L411.492188,50.96875 C411.492188,50.5677063 411.442709,50.1875018 411.34375,49.828125 C411.244791,49.4687482 411.097657,49.1549493 410.902344,48.8867188 C410.70703,48.6184882 410.464845,48.4049487 410.175781,48.2460938 C409.886717,48.0872388 409.552085,48.0078125 409.171875,48.0078125 C408.791665,48.0078125 408.457033,48.0872388 408.167969,48.2460938 C407.878905,48.4049487 407.63672,48.6184882 407.441406,48.8867188 C407.246093,49.1549493 407.098959,49.4687482 407,49.828125 C406.901041,50.1875018 406.851562,50.5677063 406.851562,50.96875 L406.851562,51.0625 C406.851562,51.453127 406.901041,51.8268211 407,52.1835938 C407.098959,52.5403664 407.246093,52.8541653 407.441406,53.125 C407.63672,53.3958347 407.878905,53.6106763 408.167969,53.7695312 C408.457033,53.9283862 408.791665,54.0078125 409.171875,54.0078125 Z M416.085938,50.9375 L419.84375,47.015625 L421.492188,47.015625 L418.453125,50.1875 L421.632812,55 L420.03125,55 L417.523438,51.0625 L416.085938,52.5390625 L416.085938,55 L414.773438,55 L414.773438,43.796875 L416.085938,43.796875 L416.085938,50.9375 Z M423.648438,51.4140625 C423.674479,51.7890644 423.749999,52.1354151 423.875,52.453125 C424.000001,52.7708349 424.170572,53.0455718 424.386719,53.2773438 C424.602866,53.5091157 424.858071,53.6888014 425.152344,53.8164062 C425.446616,53.9440111 425.773436,54.0078125 426.132812,54.0078125 C426.575523,54.0078125 426.964842,53.9335945 427.300781,53.7851562 C427.63672,53.636718 427.945311,53.450522 428.226562,53.2265625 L428.898438,54.171875 C428.539061,54.4583348 428.1237,54.6940095 427.652344,54.8789062 C427.180987,55.063803 426.653649,55.15625 426.070312,55.15625 C425.492185,55.15625 424.968752,55.0533864 424.5,54.8476562 C424.031248,54.6419261 423.631512,54.3554706 423.300781,53.9882812 C422.97005,53.6210919 422.716147,53.1835963 422.539062,52.6757812 C422.361978,52.1679662 422.273438,51.6145863 422.273438,51.015625 C422.273438,50.406247 422.360676,49.8476588 422.535156,49.3398438 C422.709636,48.8320287 422.955728,48.3945331 423.273438,48.0273438 C423.591147,47.6601544 423.971352,47.3736989 424.414062,47.1679688 C424.856773,46.9622386 425.348956,46.859375 425.890625,46.859375 C426.416669,46.859375 426.890623,46.9622386 427.3125,47.1679688 C427.734377,47.3736989 428.093749,47.6601544 428.390625,48.0273438 C428.687501,48.3945331 428.915364,48.8320287 429.074219,49.3398438 C429.233074,49.8476588 429.3125,50.4010387 429.3125,51 L429.3125,51.4140625 L423.648438,51.4140625 Z M425.84375,48.0078125 C425.510415,48.0078125 425.213543,48.072916 424.953125,48.203125 C424.692707,48.333334 424.470053,48.5078114 424.285156,48.7265625 C424.100259,48.9453136 423.954428,49.1966132 423.847656,49.4804688 C423.740885,49.7643243 423.679688,50.0572902 423.664062,50.359375 L427.890625,50.359375 C427.880208,50.0520818 427.826823,49.7565118 427.730469,49.4726562 C427.634114,49.1888007 427.498699,48.9388032 427.324219,48.7226562 C427.149739,48.5065093 426.938803,48.333334 426.691406,48.203125 C426.444009,48.072916 426.16146,48.0078125 425.84375,48.0078125 Z M436.398438,54.0859375 C436.164061,54.4140641 435.845054,54.6744782 435.441406,54.8671875 C435.037758,55.0598968 434.578128,55.15625 434.0625,55.15625 C433.546872,55.15625 433.080731,55.0533864 432.664062,54.8476562 C432.247394,54.6419261 431.890626,54.3554706 431.59375,53.9882812 C431.296874,53.6210919 431.069011,53.1848984 430.910156,52.6796875 C430.751301,52.1744766 430.671875,51.6197947 430.671875,51.015625 C430.671875,50.4114553 430.751301,49.8554713 430.910156,49.3476562 C431.069011,48.8398412 431.296874,48.4010435 431.59375,48.03125 C431.890626,47.6614565 432.247394,47.3736989 432.664062,47.1679688 C433.080731,46.9622386 433.546872,46.859375 434.0625,46.859375 C434.578128,46.859375 435.037758,46.9557282 435.441406,47.1484375 C435.845054,47.3411468 436.164061,47.6015609 436.398438,47.9296875 L436.398438,43.796875 L437.710938,43.796875 L437.710938,55 L436.398438,55 L436.398438,54.0859375 Z M432.03125,51.046875 C432.03125,51.4635437 432.080729,51.8515607 432.179688,52.2109375 C432.278646,52.5703143 432.424478,52.8815091 432.617188,53.1445312 C432.809897,53.4075534 433.046874,53.6145826 433.328125,53.765625 C433.609376,53.9166674 433.934894,53.9921875 434.304688,53.9921875 C434.653648,53.9921875 434.959634,53.9322923 435.222656,53.8125 C435.485678,53.6927077 435.705728,53.5286469 435.882812,53.3203125 C436.059897,53.1119781 436.192708,52.8658868 436.28125,52.5820312 C436.369792,52.2981757 436.414062,51.989585 436.414062,51.65625 L436.414062,50.359375 C436.414062,50.02604 436.369792,49.7174493 436.28125,49.4335938 C436.192708,49.1497382 436.059897,48.9036469 435.882812,48.6953125 C435.705728,48.4869781 435.485678,48.3229173 435.222656,48.203125 C434.959634,48.0833327 434.653648,48.0234375 434.304688,48.0234375 C433.934894,48.0234375 433.609376,48.0989576 433.328125,48.25 C433.046874,48.4010424 432.809897,48.6080716 432.617188,48.8710938 C432.424478,49.1341159 432.278646,49.4453107 432.179688,49.8046875 C432.080729,50.1640643 432.03125,50.5520813 432.03125,50.96875 L432.03125,51.046875 Z" id="Hearing-booked" fill="#231F1F"></path>
                    <g id="Oval" transform="translate(562.000000, 16.000000) rotate(-90.000000) translate(-562.000000, -16.000000) ">
                        <use fill="#FFFFFF" fill-rule="evenodd" xlink:href="#path-4"></use>
                        <path stroke="#006435" stroke-width="6" d="M562,29 C554.820298,29 549,23.1797017 549,16 C549,8.82029825 554.820298,3 562,3 C569.179702,3 575,8.82029825 575,16 C575,23.1797017 569.179702,29 562,29 Z"></path>
                    </g>
                    <path d="M543.457031,49.8515625 L537.558594,49.8515625 L537.558594,55 L536.183594,55 L536.183594,43.796875 L537.558594,43.796875 L537.558594,48.6640625 L543.457031,48.6640625 L543.457031,43.796875 L544.839844,43.796875 L544.839844,55 L543.457031,55 L543.457031,49.8515625 Z M548.285156,51.4140625 C548.311198,51.7890644 548.386718,52.1354151 548.511719,52.453125 C548.636719,52.7708349 548.807291,53.0455718 549.023438,53.2773438 C549.239584,53.5091157 549.49479,53.6888014 549.789062,53.8164062 C550.083335,53.9440111 550.410154,54.0078125 550.769531,54.0078125 C551.212242,54.0078125 551.601561,53.9335945 551.9375,53.7851562 C552.273439,53.636718 552.58203,53.450522 552.863281,53.2265625 L553.535156,54.171875 C553.175779,54.4583348 552.760419,54.6940095 552.289062,54.8789062 C551.817706,55.063803 551.290368,55.15625 550.707031,55.15625 C550.128903,55.15625 549.605471,55.0533864 549.136719,54.8476562 C548.667966,54.6419261 548.268231,54.3554706 547.9375,53.9882812 C547.606769,53.6210919 547.352865,53.1835963 547.175781,52.6757812 C546.998697,52.1679662 546.910156,51.6145863 546.910156,51.015625 C546.910156,50.406247 546.997395,49.8476588 547.171875,49.3398438 C547.346355,48.8320287 547.592446,48.3945331 547.910156,48.0273438 C548.227866,47.6601544 548.608071,47.3736989 549.050781,47.1679688 C549.493492,46.9622386 549.985674,46.859375 550.527344,46.859375 C551.053388,46.859375 551.527342,46.9622386 551.949219,47.1679688 C552.371096,47.3736989 552.730467,47.6601544 553.027344,48.0273438 C553.32422,48.3945331 553.552083,48.8320287 553.710938,49.3398438 C553.869792,49.8476588 553.949219,50.4010387 553.949219,51 L553.949219,51.4140625 L548.285156,51.4140625 Z M550.480469,48.0078125 C550.147134,48.0078125 549.850262,48.072916 549.589844,48.203125 C549.329426,48.333334 549.106772,48.5078114 548.921875,48.7265625 C548.736978,48.9453136 548.591146,49.1966132 548.484375,49.4804688 C548.377604,49.7643243 548.316406,50.0572902 548.300781,50.359375 L552.527344,50.359375 C552.516927,50.0520818 552.463542,49.7565118 552.367188,49.4726562 C552.270833,49.1888007 552.135418,48.9388032 551.960938,48.7226562 C551.786457,48.5065093 551.575522,48.333334 551.328125,48.203125 C551.080728,48.072916 550.798179,48.0078125 550.480469,48.0078125 Z M560.316406,54.203125 C560.08203,54.4739597 559.765627,54.7005199 559.367188,54.8828125 C558.968748,55.0651051 558.501305,55.15625 557.964844,55.15625 C557.569008,55.15625 557.201825,55.100261 556.863281,54.9882812 C556.524738,54.8763015 556.23047,54.7161469 555.980469,54.5078125 C555.730468,54.2994781 555.535157,54.0468765 555.394531,53.75 C555.253906,53.4531235 555.183594,53.1171894 555.183594,52.7421875 C555.183594,52.4296859 555.234374,52.1445325 555.335938,51.8867188 C555.437501,51.628905 555.580728,51.4036468 555.765625,51.2109375 C555.950522,51.0182282 556.173176,50.8606777 556.433594,50.7382812 C556.694012,50.6158848 556.985675,50.5312502 557.308594,50.484375 L560.128906,50.1015625 L560.128906,49.59375 C560.128906,49.2916652 560.082032,49.0377614 559.988281,48.8320312 C559.894531,48.6263011 559.76823,48.4635423 559.609375,48.34375 C559.45052,48.2239577 559.263022,48.1380211 559.046875,48.0859375 C558.830728,48.0338539 558.597657,48.0078125 558.347656,48.0078125 C557.899737,48.0078125 557.481773,48.0703119 557.09375,48.1953125 C556.705727,48.3203131 556.35547,48.466145 556.042969,48.6328125 L555.550781,47.59375 C556.009117,47.333332 556.489581,47.1458339 556.992188,47.03125 C557.494794,46.9166661 557.990883,46.859375 558.480469,46.859375 C559.454432,46.859375 560.191404,47.0794249 560.691406,47.5195312 C561.191409,47.9596376 561.441406,48.6015583 561.441406,49.4453125 L561.441406,53.125 C561.441406,53.3906263 561.493489,53.6132804 561.597656,53.7929688 C561.701823,53.9726571 561.868488,54.1145828 562.097656,54.21875 L561.355469,55.15625 C561.105468,55.0937497 560.890626,54.9830737 560.710938,54.8242188 C560.531249,54.6653638 560.404948,54.4739595 560.332031,54.25 L560.316406,54.203125 Z M557.980469,51.4453125 C557.761718,51.4765627 557.562501,51.520833 557.382812,51.578125 C557.203124,51.635417 557.050782,51.7122391 556.925781,51.8085938 C556.800781,51.9049484 556.703125,52.0234368 556.632812,52.1640625 C556.5625,52.3046882 556.527344,52.4765615 556.527344,52.6796875 C556.527344,52.9140637 556.571614,53.1223949 556.660156,53.3046875 C556.748698,53.4869801 556.868489,53.6406244 557.019531,53.765625 C557.170574,53.8906256 557.346353,53.9856768 557.546875,54.0507812 C557.747397,54.1158857 557.95703,54.1484375 558.175781,54.1484375 C558.420574,54.1484375 558.660155,54.1145837 558.894531,54.046875 C559.128907,53.9791663 559.337239,53.8815111 559.519531,53.7539062 C559.701824,53.6263014 559.848958,53.4713551 559.960938,53.2890625 C560.072917,53.1067699 560.128906,52.8984387 560.128906,52.6640625 L560.128906,51.125 L557.980469,51.4453125 Z M567.902344,48.1875 L567.691406,48.1875 C567.352863,48.1875 567.029949,48.2265621 566.722656,48.3046875 C566.415363,48.3828129 566.144532,48.5234365 565.910156,48.7265625 C565.67578,48.9296885 565.488282,49.2070295 565.347656,49.5585938 C565.207031,49.910158 565.136719,50.3593723 565.136719,50.90625 L565.136719,55 L563.824219,55 L563.824219,47.015625 L565.136719,47.015625 L565.136719,48.28125 C565.235678,48.0468738 565.368489,47.8411467 565.535156,47.6640625 C565.701824,47.4869783 565.890624,47.3398443 566.101562,47.2226562 C566.312501,47.1054682 566.539061,47.0182295 566.78125,46.9609375 C567.023439,46.9036455 567.26953,46.875 567.519531,46.875 L567.902344,46.875 L567.902344,48.1875 Z M570.753906,55 L569.441406,55 L569.441406,47.015625 L570.753906,47.015625 L570.753906,55 Z M569.199219,44.7109375 C569.199219,44.5859369 569.223958,44.4687505 569.273438,44.359375 C569.322917,44.2499995 569.38802,44.1536463 569.46875,44.0703125 C569.54948,43.9869787 569.645833,43.9205732 569.757812,43.8710938 C569.869792,43.8216143 569.988281,43.796875 570.113281,43.796875 C570.238282,43.796875 570.355468,43.8216143 570.464844,43.8710938 C570.574219,43.9205732 570.66927,43.9869787 570.75,44.0703125 C570.83073,44.1536463 570.895833,44.2499995 570.945312,44.359375 C570.994792,44.4687505 571.019531,44.5859369 571.019531,44.7109375 C571.019531,44.8359381 570.994792,44.9544265 570.945312,45.0664062 C570.895833,45.178386 570.83073,45.2747392 570.75,45.3554688 C570.66927,45.4361983 570.574219,45.5013018 570.464844,45.5507812 C570.355468,45.6002607 570.238282,45.625 570.113281,45.625 C569.988281,45.625 569.869792,45.6002607 569.757812,45.5507812 C569.645833,45.5013018 569.54948,45.4361983 569.46875,45.3554688 C569.38802,45.2747392 569.322917,45.178386 569.273438,45.0664062 C569.223958,44.9544265 569.199219,44.8359381 569.199219,44.7109375 Z M573.152344,47.015625 L574.464844,47.015625 L574.464844,47.9296875 C574.735678,47.559894 575.070311,47.2890634 575.46875,47.1171875 C575.867189,46.9453116 576.311195,46.859375 576.800781,46.859375 C577.243492,46.859375 577.631509,46.9322909 577.964844,47.078125 C578.298179,47.2239591 578.576822,47.4218738 578.800781,47.671875 C579.024741,47.9218762 579.192708,48.2109359 579.304688,48.5390625 C579.416667,48.8671891 579.472656,49.2135398 579.472656,49.578125 L579.472656,55 L578.160156,55 L578.160156,49.9921875 C578.160156,49.6432274 578.117188,49.3450533 578.03125,49.0976562 C577.945312,48.8502592 577.828126,48.6497404 577.679688,48.4960938 C577.531249,48.3424471 577.356772,48.2304691 577.15625,48.1601562 C576.955728,48.0898434 576.740887,48.0546875 576.511719,48.0546875 C576.261718,48.0546875 576.015626,48.10026 575.773438,48.1914062 C575.531249,48.2825525 575.312501,48.4192699 575.117188,48.6015625 C574.921874,48.7838551 574.764324,49.0130195 574.644531,49.2890625 C574.524739,49.5651055 574.464844,49.8906231 574.464844,50.265625 L574.464844,55 L573.152344,55 L573.152344,47.015625 Z M581.355469,50.5703125 C581.355469,50.0442682 581.430989,49.5546898 581.582031,49.1015625 C581.733074,48.6484352 581.949217,48.2565121 582.230469,47.9257812 C582.51172,47.5950504 582.851561,47.3346364 583.25,47.1445312 C583.648439,46.9544261 584.09505,46.859375 584.589844,46.859375 C585.027346,46.859375 585.444008,46.9440096 585.839844,47.1132812 C586.235679,47.2825529 586.571613,47.5546856 586.847656,47.9296875 L586.847656,47.015625 L588.160156,47.015625 L588.160156,55 C588.160156,55.4947941 588.059897,55.9101546 587.859375,56.2460938 C587.658853,56.5820329 587.397137,56.8515615 587.074219,57.0546875 C586.7513,57.2578135 586.385419,57.4036454 585.976562,57.4921875 C585.567706,57.5807296 585.152346,57.625 584.730469,57.625 C584.496093,57.625 584.252605,57.6119793 584,57.5859375 C583.747395,57.5598957 583.493491,57.5208336 583.238281,57.46875 C582.983072,57.4166664 582.731772,57.3502608 582.484375,57.2695312 C582.236978,57.1888017 582.001303,57.0937505 581.777344,56.984375 L582.253906,55.8828125 C582.410157,55.9557295 582.574218,56.0273434 582.746094,56.0976562 C582.91797,56.1679691 583.104166,56.2317705 583.304688,56.2890625 C583.505209,56.3463545 583.720051,56.393229 583.949219,56.4296875 C584.178387,56.466146 584.428384,56.484375 584.699219,56.484375 C585.032554,56.484375 585.333332,56.4505212 585.601562,56.3828125 C585.869793,56.3151038 586.095051,56.2096361 586.277344,56.0664062 C586.459636,55.9231764 586.60026,55.7408865 586.699219,55.5195312 C586.798178,55.298176 586.847656,55.0338557 586.847656,54.7265625 L586.847656,53.2109375 C586.571613,53.5859394 586.235679,53.8580721 585.839844,54.0273438 C585.444008,54.1966154 585.027346,54.28125 584.589844,54.28125 C584.09505,54.28125 583.648439,54.1861989 583.25,53.9960938 C582.851561,53.8059886 582.51172,53.5442725 582.230469,53.2109375 C581.949217,52.8776025 581.733074,52.4856793 581.582031,52.0351562 C581.430989,51.5846332 581.355469,51.0963568 581.355469,50.5703125 Z M586.878906,50.5390625 C586.878906,50.1796857 586.839844,49.8476578 586.761719,49.5429688 C586.683593,49.2382797 586.561199,48.9726574 586.394531,48.7460938 C586.227864,48.5195301 586.015626,48.3424486 585.757812,48.2148438 C585.499999,48.0872389 585.191408,48.0234375 584.832031,48.0234375 C584.467446,48.0234375 584.152345,48.088541 583.886719,48.21875 C583.621092,48.348959 583.401043,48.5273426 583.226562,48.7539062 C583.052082,48.9804699 582.923177,49.2473943 582.839844,49.5546875 C582.75651,49.8619807 582.714844,50.1901024 582.714844,50.5390625 L582.714844,50.6015625 C582.714844,50.9505226 582.75651,51.2773422 582.839844,51.5820312 C582.923177,51.8867203 583.052082,52.1523426 583.226562,52.3789062 C583.401043,52.6054699 583.621092,52.7838535 583.886719,52.9140625 C584.152345,53.0442715 584.467446,53.109375 584.832031,53.109375 C585.191408,53.109375 585.499999,53.0455736 585.757812,52.9179688 C586.015626,52.7903639 586.227864,52.6145845 586.394531,52.390625 C586.561199,52.1666655 586.683593,51.9010432 586.761719,51.59375 C586.839844,51.2864568 586.878906,50.9557309 586.878906,50.6015625 L586.878906,50.5390625 Z" id="Hearing" fill="#231F1F"></path>
                    <polygon id="Shape" fill="#FFFFFF" points="23.94 18.36 20.52 14.94 18 17.46 23.94 23.5799999 35.9999999 11.52 33.4799999 9"></polygon>
                </g>
            </g>
        </g>
    </g>
</svg>